<svg width="118" height="86" viewBox="0 0 118 86" fill="none" xmlns="http://www.w3.org/2000/svg">
<path d="M36.1072 60.9298C34.201 60.9298 32.5302 60.6725 31.0947 60.1579C29.6592 59.6667 28.5532 58.9415 27.7766 57.9825C27.5413 57.7251 27.353 57.386 27.2118 56.9649C27.0706 56.5205 27 56.076 27 55.6316C27 55.0702 27.1177 54.6374 27.353 54.3333C27.5883 54.0292 27.7766 53.8187 27.9178 53.7018C28.059 53.5614 28.1531 53.4678 28.2002 53.4211C28.2472 53.3977 28.4355 53.2222 28.765 52.8947C29.1179 52.4737 29.7886 51.9708 30.777 51.386C31.7654 50.7778 32.589 50.345 33.2479 50.0877C33.6715 49.9006 33.9892 49.7719 34.201 49.7018L34.5893 49.5614L34.6599 49.5263L34.8011 49.7018L34.7658 49.7368C34.6246 49.924 34.3775 50.0877 34.0245 50.2281C33.9775 50.2515 33.9069 50.2865 33.8127 50.3333C33.7421 50.3567 33.6598 50.3918 33.5656 50.4386C33.6362 50.4386 33.7068 50.4737 33.7774 50.5439L33.8127 50.6491L33.7421 50.6842C33.4127 50.9415 32.9303 51.2573 32.2949 51.6316C30.8829 52.5439 29.7769 53.3509 28.9768 54.0526C28.1766 54.731 27.7766 55.4211 27.7766 56.1228C27.7766 56.7076 28.1178 57.269 28.8003 57.807C29.4356 58.2749 30.1063 58.6608 30.8123 58.9649C31.5418 59.2924 32.1184 59.5146 32.542 59.6316L33.3185 59.7368C34.0951 59.8538 34.5305 59.9474 34.6246 60.0175H34.6952H34.8011H34.8717L34.9776 59.9825H35.4012C35.5659 59.9825 35.7424 60.0058 35.9307 60.0526H36.0366L36.4955 59.9825C36.5896 59.9591 36.6955 59.9474 36.8132 59.9474H36.8838L37.5897 59.9825C38.5075 59.9825 39.6018 59.807 40.8726 59.4561C42.1669 59.1053 43.4141 58.6491 44.6143 58.0877C46.3322 57.2924 47.5559 56.4854 48.2854 55.6667C49.0384 54.8246 49.5091 54.0643 49.6973 53.386C49.7679 53.1053 49.8032 52.8363 49.8032 52.5789C49.8032 51.8772 49.5561 51.1754 49.062 50.4737C48.2854 49.3977 46.9205 48.345 44.9673 47.3158C43.7671 46.7076 42.5669 46.1228 41.3667 45.5614C40.0724 44.9532 39.0958 44.4737 38.4369 44.1228C37.8015 43.7719 37.2956 43.3977 36.9191 43C36.3307 42.345 35.9895 41.6667 35.8954 40.9649L35.8601 40.5088C35.8601 39.924 35.9777 39.3509 36.2131 38.7895C36.6367 37.7368 37.4132 36.6491 38.5428 35.5263C39.6959 34.4035 41.1079 33.3392 42.7787 32.3333C44.3554 31.3977 45.9674 30.6374 47.6147 30.0526C49.2855 29.4444 50.8034 29.0936 52.1683 29H52.6625C54.145 29 55.0981 29.4795 55.5217 30.4386C55.6629 30.7427 55.7335 31.0819 55.7335 31.4561C55.7335 31.9708 55.6041 32.5088 55.3452 33.0702C55.0863 33.6316 54.7334 34.1696 54.2862 34.6842C53.3449 35.7368 52.3212 36.6842 51.2152 37.5263C50.1092 38.3684 49.0855 38.7895 48.1442 38.7895C47.4147 38.7895 46.8028 38.4737 46.3086 37.8421C46.191 37.655 46.1086 37.2807 46.0615 36.7193V36.5789V36.5088C46.0615 36.3216 46.1674 36.1111 46.3792 35.8772C46.8734 35.269 47.8147 34.5906 49.2032 33.8421C50.5916 33.0936 51.5094 32.7193 51.9565 32.7193H52.0977L52.0624 32.8596C52.0389 32.883 52.0271 32.9181 52.0271 32.9649C51.933 33.1988 51.8271 33.3626 51.7094 33.4561C51.4505 33.6901 50.8387 34.0877 49.8738 34.6491C49.0031 35.1403 48.3324 35.5731 47.8618 35.9474C47.3911 36.2982 47.1087 36.6842 47.0146 37.1053C47.297 37.2222 47.5912 37.2807 47.8971 37.2807C48.2501 37.2807 48.7207 37.2222 49.3091 37.1053C49.4973 37.0585 49.6267 37.0351 49.6973 37.0351C49.9797 36.8947 50.4033 36.6608 50.9681 36.3333C51.5564 35.9825 51.8741 35.7719 51.9212 35.7018L52.5213 35.1403C53.1802 34.5556 53.7332 33.9591 54.1803 33.3509C54.6275 32.7427 54.8863 32.0409 54.9569 31.2456C54.9569 30.8947 54.8628 30.6257 54.6745 30.4386C54.3215 30.0409 53.6626 29.8421 52.6978 29.8421C51.8506 29.8421 50.8269 30.0058 49.6267 30.3333C48.4501 30.6608 47.2382 31.1053 45.9909 31.6667C44.579 32.3216 43.2376 33.0936 41.9668 33.9825C40.7196 34.848 39.6253 35.7719 38.684 36.7544C37.272 38.1813 36.5661 39.4327 36.5661 40.5088C36.5661 41 36.719 41.4561 37.025 41.8772C37.3309 42.2749 37.8015 42.6842 38.4369 43.1053C38.9782 43.4795 39.6606 43.8538 40.4843 44.2281C41.3079 44.5789 41.8139 44.7895 42.0021 44.8596C44.1907 45.7953 45.838 46.6491 46.944 47.4211C48.5678 48.614 49.662 49.7953 50.2268 50.9649C50.5563 51.6901 50.721 52.3684 50.721 53C50.721 53.4211 50.6504 53.8421 50.5092 54.2632C50.2033 55.1754 49.5797 56.0526 48.6384 56.8947C47.7206 57.7134 46.544 58.4386 45.1085 59.0702C43.7671 59.655 42.3081 60.1111 40.7314 60.4386C39.1782 60.7661 37.6368 60.9298 36.1072 60.9298Z" fill="black"/>
<path d="M53.1754 38.4035C53.0813 38.5906 52.9519 38.6842 52.7871 38.6842C52.7165 38.6842 52.6577 38.6491 52.6106 38.5789C52.5636 38.5088 52.5518 38.4152 52.5753 38.2982C52.5989 38.1345 52.6577 37.8304 52.7518 37.386C52.7518 37.3158 52.7754 37.2105 52.8224 37.0702C52.8695 36.9064 52.9636 36.8012 53.1048 36.7544C53.1519 36.731 53.2107 36.7193 53.2813 36.7193C53.3754 36.7193 53.4578 36.7427 53.5284 36.7895C53.599 36.8363 53.6578 36.8713 53.7049 36.8947C53.799 36.9883 53.8461 37.0819 53.8461 37.1754C53.8461 37.2924 53.7873 37.4444 53.6696 37.6316L53.1754 38.4035ZM50.7751 47.8421C50.6809 47.9357 50.575 47.9825 50.4574 47.9825C50.2691 47.9825 50.1044 47.8772 49.9632 47.6667C49.822 47.4327 49.7514 47.1287 49.7514 46.7544C49.7514 46.2632 49.9044 45.5497 50.2103 44.614C50.5162 43.655 50.8221 42.7778 51.1281 41.9825C51.4575 41.1637 51.6811 40.6374 51.7987 40.4035C51.9164 40.193 52.0694 40.0877 52.2576 40.0877C52.4224 40.0877 52.5518 40.1462 52.6459 40.2632C52.7401 40.3801 52.7518 40.5439 52.6812 40.7544L51.7634 43.2105C51.3869 44.2164 51.1163 44.9532 50.9516 45.4211C50.8104 45.8889 50.728 46.4035 50.7045 46.9649V47.0351C50.7045 47.1287 50.728 47.2339 50.7751 47.3509C50.8457 47.4678 50.881 47.5614 50.881 47.6316C50.9045 47.7018 50.8692 47.7719 50.7751 47.8421Z" fill="black"/>
<path d="M47.5107 59.9825C47.5107 58.6491 48.252 56.9181 49.7346 54.7895C50.6994 53.4094 51.6643 52.2164 52.6291 51.2105C53.1468 50.6491 53.4998 50.1696 53.6881 49.7719C53.8999 49.3743 54.1234 48.6257 54.3588 47.5263H54.2882L53.9352 48.0175C53.6292 48.4386 53.3233 48.6491 53.0174 48.6491C52.7821 48.6491 52.5938 48.5205 52.4526 48.2632C52.3114 47.9825 52.2408 47.6199 52.2408 47.1754C52.2408 46.3567 52.4761 45.386 52.9468 44.2632C53.441 43.1403 54.2058 41.9825 55.2412 40.7895C55.406 40.5789 55.6178 40.4152 55.8766 40.2982C56.159 40.1579 56.4296 40.0877 56.6885 40.0877C56.8532 40.0877 56.9944 40.1228 57.1121 40.193C57.2768 40.2632 57.3945 40.4035 57.4651 40.614C57.5592 40.8012 57.5828 40.9883 57.5357 41.1754C57.4651 41.386 57.3357 41.4912 57.1474 41.4912C57.0062 41.4912 56.9356 41.4211 56.9356 41.2807C56.9356 41.0702 56.9121 40.9064 56.865 40.7895C56.8179 40.6491 56.712 40.5439 56.5473 40.4737C55.9825 40.8947 55.4177 41.538 54.8529 42.4035C54.2882 43.269 53.8175 44.1696 53.441 45.1053C53.088 46.0409 52.9115 46.8246 52.9115 47.4561C52.9115 47.6199 52.935 47.7953 52.9821 47.9825L53.1939 47.807C54.0411 46.614 54.6176 45.7368 54.9235 45.1754C55.253 44.5906 55.6295 43.7953 56.0531 42.7895L56.4767 41.7719C56.6414 41.7485 56.8179 41.7368 57.0062 41.7368C57.1709 41.7368 57.2415 41.7953 57.218 41.9123C57.218 42.0292 57.1121 42.3333 56.9003 42.8246C56.1237 44.7427 55.453 46.7076 54.8882 48.7193L54.9235 48.8596C55.9119 48.0643 56.7238 47.421 57.3592 46.9298C58.0181 46.4386 58.5476 46.0877 58.9476 45.8772L58.9829 45.9123C58.7947 46.076 58.63 46.2164 58.4888 46.3333C58.3476 46.4269 58.2299 46.5205 58.1358 46.614C58.0652 46.7076 58.0181 46.8129 57.9946 46.9298C57.9475 47.0234 57.8534 47.117 57.7122 47.2105C57.0297 47.8655 56.5238 48.3216 56.1943 48.5789C55.6531 49.0702 55.2412 49.4561 54.9588 49.7368C54.7 49.9942 54.547 50.193 54.5 50.3333C54.4764 50.4737 54.4529 50.6491 54.4294 50.8596C54.3823 51.0702 54.3235 51.3158 54.2529 51.5965C54.2058 51.8772 54.147 52.193 54.0764 52.5439C53.6998 54.3216 53.3469 55.7485 53.0174 56.8246C52.6879 57.8772 52.2408 58.7778 51.676 59.5263C50.8994 60.5088 50.0523 61 49.1345 61C48.6874 61 48.2991 60.8947 47.9696 60.6842C47.6637 60.4737 47.5107 60.2398 47.5107 59.9825ZM49.1698 60.4737C49.8993 60.3333 50.4641 59.9591 50.8641 59.3509C52.0408 57.5263 52.888 54.9064 53.4057 51.4912C52.0408 52.848 50.8406 54.3684 49.8052 56.0526C48.7933 57.7368 48.2873 58.9883 48.2873 59.807C48.2873 60.2749 48.4873 60.5088 48.8874 60.5088C49.0051 60.5088 49.0992 60.4971 49.1698 60.4737Z" fill="black"/>
<path d="M60.5416 48.4737C60.1886 48.3567 60.0121 48.0175 60.0121 47.4561C60.0121 46.9649 60.1063 46.4386 60.2945 45.8772C60.5063 45.2924 60.8123 44.5205 61.2123 43.5614L61.53 42.7895C60.9182 43.4444 60.4004 44.1111 59.9768 44.7895C59.5768 45.4444 59.3297 45.8421 59.2356 45.9825C59.0238 46.3567 58.812 46.6959 58.6002 47C58.3648 47.3509 58.1531 47.5263 57.9648 47.5263C57.8236 47.5263 57.7177 47.4678 57.6471 47.3509C57.5765 47.2105 57.553 47.0702 57.5765 46.9298C57.6706 46.3216 57.953 45.4561 58.4237 44.3333C58.9179 43.2105 59.2826 42.6374 59.5179 42.614C59.565 42.614 59.6238 42.6257 59.6944 42.6491C59.7886 42.6725 59.8592 42.7076 59.9062 42.7544C59.9768 42.8246 59.9768 42.9415 59.9062 43.1053C59.8356 43.2456 59.7415 43.4211 59.6238 43.6316C59.2709 44.2398 59.012 44.8129 58.8473 45.3509L58.812 45.4561C58.8355 45.4327 58.9179 45.3158 59.0591 45.1053C59.2238 44.8947 59.3768 44.6959 59.5179 44.5088C60.6946 42.8713 61.4594 41.8889 61.8124 41.5614C62.0242 41.3743 62.2595 41.2807 62.5184 41.2807C62.6831 41.2807 62.8125 41.3392 62.9067 41.4561C63.0008 41.5497 63.0126 41.6667 62.942 41.807C62.8949 41.9006 62.7184 42.2749 62.4125 42.9298C62.1066 43.5614 61.8124 44.2515 61.53 45C60.9888 46.3099 60.7534 47.2222 60.824 47.7368C60.824 47.807 60.8593 47.8421 60.9299 47.8421C60.977 47.8421 61.0829 47.7953 61.2476 47.7018C61.4123 47.5848 61.5065 47.5731 61.53 47.6667V47.807C61.53 47.9474 61.4829 48.0643 61.3888 48.1579C61.1299 48.462 60.8476 48.5672 60.5416 48.4737Z" fill="black"/>
<path d="M62.6168 47.4912C62.405 47.2573 62.2991 46.8713 62.2991 46.3333C62.2991 45.7251 62.4521 45.0585 62.758 44.3333C63.064 43.5848 63.4287 42.9298 63.8523 42.3684C64.2994 41.807 64.723 41.4795 65.1231 41.386C65.3584 41.3392 65.5349 41.3158 65.6526 41.3158C66.0761 41.3158 66.3938 41.4678 66.6056 41.7719C66.6527 41.8187 66.6762 41.8772 66.6762 41.9474C66.6762 42.0175 66.6056 42.1228 66.4644 42.2632C66.4174 42.2164 66.3585 42.1696 66.2879 42.1228C66.2173 42.0526 66.1467 41.9825 66.0761 41.9123C66.0055 41.8187 65.9114 41.7719 65.7938 41.7719C65.5114 41.7719 65.1466 42.0292 64.6995 42.5439C64.2524 43.0585 63.8523 43.6901 63.4993 44.4386C63.1698 45.1871 63.0051 45.8889 63.0051 46.5439C63.0051 46.7778 63.0169 46.9532 63.0404 47.0702C63.0875 47.0234 63.264 46.8246 63.5699 46.4737C63.8758 46.1228 64.4053 45.2222 65.1584 43.7719C65.276 43.5614 65.3937 43.4561 65.5114 43.4561L65.7938 43.4211C65.935 43.4211 66.0408 43.4678 66.1114 43.5614C66.1585 43.6316 66.1585 43.7134 66.1114 43.807C65.8761 44.1579 65.6761 44.5789 65.5114 45.0702C65.3702 45.5614 65.2996 46.0292 65.2996 46.4737C65.2996 46.848 65.3702 47.1754 65.5114 47.4561C65.7702 47.3626 66.0291 47.0819 66.2879 46.614C66.5703 46.1462 66.8174 45.6784 67.0292 45.2105C67.241 44.7427 67.3822 44.4269 67.4528 44.2632C67.5234 44.4035 67.5587 44.6023 67.5587 44.8596C67.5587 45.2573 67.4763 45.6901 67.3116 46.1579C67.1704 46.6023 66.9469 47.0117 66.6409 47.386C66.335 47.7602 66.0173 47.9474 65.6879 47.9474C65.3584 47.9474 65.076 47.7719 64.8407 47.4211C64.6289 47.0702 64.5347 46.7076 64.5583 46.3333L63.6758 47.4561C63.4875 47.6433 63.2875 47.7368 63.0757 47.7368C62.8875 47.7368 62.7345 47.655 62.6168 47.4912Z" fill="black"/>
<path d="M68.2302 48.0526C67.5478 47.7953 67.2065 47.0936 67.2065 45.9474C67.2065 45.1988 67.3242 44.3567 67.5595 43.4211C67.8184 42.4854 68.1361 41.4444 68.5126 40.2982C67.9949 40.3684 67.6301 40.4035 67.4183 40.4035C67.2301 40.4035 67.0889 40.3801 66.9947 40.3333C66.9006 40.2632 66.7947 40.1345 66.6771 39.9474C67.1712 39.9006 67.5242 39.8655 67.736 39.8421C67.9714 39.7953 68.3126 39.7018 68.7597 39.5614L69.148 38.6491C69.4775 37.924 69.701 37.4678 69.8187 37.2807C69.9363 37.0936 70.0893 37 70.2776 37L70.5953 37.0702C70.76 37.0936 70.8424 37.1637 70.8424 37.2807C70.8424 37.3977 70.7012 37.7602 70.4188 38.3684L70.1364 39L70.8424 38.7895C72.9603 38.0643 74.3487 37.7018 75.0077 37.7018C75.2194 37.7018 75.3371 37.7368 75.3606 37.807C75.3136 37.924 75.1606 38.0292 74.9018 38.1228C74.6429 38.2164 74.4076 38.2865 74.1958 38.3333C74.0075 38.3801 73.8781 38.4152 73.8075 38.4386C72.8662 38.7193 72.372 38.8713 72.3249 38.8947C71.5954 39.1754 71.0189 39.3977 70.5953 39.5614C70.1717 39.7251 69.9246 39.8421 69.854 39.9123C69.7834 39.9825 69.7128 40.1111 69.6422 40.2982C69.3363 41.0936 69.0068 42.1462 68.6538 43.4561C68.3244 44.7661 68.1596 45.8187 68.1596 46.614C68.1596 47.0585 68.2302 47.3743 68.3714 47.5614C68.6773 47.3743 69.1009 46.8129 69.6422 45.8772C70.1834 44.9415 70.5011 44.3918 70.5953 44.2281L70.7012 44.2632C70.5835 45.2456 70.2658 46.1696 69.7481 47.0351C69.2539 47.9006 68.7479 48.2398 68.2302 48.0526Z" fill="black"/>
<path d="M72.8439 48.7193C72.7263 48.4854 72.6674 48.193 72.6674 47.8421C72.6674 47.6784 72.6792 47.4678 72.7027 47.2105C72.7263 46.9298 72.7263 46.6725 72.7027 46.4386C72.6321 46.6023 72.5027 46.8479 72.3144 47.1754C72.1497 47.5029 71.985 47.7719 71.8203 47.9825C71.5849 48.2865 71.3261 48.4386 71.0437 48.4386C70.7613 48.4386 70.526 48.2982 70.3377 48.0175C70.1494 47.7134 70.0553 47.3158 70.0553 46.8246C70.0553 46.5906 70.0671 46.4035 70.0906 46.2632C70.2083 45.4444 70.4436 44.5439 70.7966 43.5614C71.1731 42.5556 71.5732 41.7602 71.9967 41.1754C72.4439 40.5673 72.8086 40.3684 73.091 40.5789C73.1381 40.6257 73.1381 40.7193 73.091 40.8596C73.044 40.9766 72.9851 41.1053 72.9145 41.2456C72.8439 41.3626 72.7969 41.4444 72.7733 41.4912C72.3262 42.2164 71.985 42.8596 71.7497 43.4211C71.3731 44.2865 71.0907 45.1754 70.9025 46.0877L70.8672 46.9298C70.8672 47.3977 70.9142 47.6784 71.0084 47.7719C71.3143 47.4912 72.0673 46.0994 73.2675 43.5965L74.0088 42.1228C74.0794 42.0526 74.15 42.0409 74.2206 42.0877C74.4795 42.1579 74.6089 42.345 74.6089 42.6491C74.6089 42.8363 74.5265 43.3041 74.3618 44.0526C74.0323 45.3626 73.8088 46.5322 73.6911 47.5614C73.6911 47.6082 73.6793 47.7018 73.6558 47.8421C73.6323 47.9825 73.6323 48.0877 73.6558 48.1579C73.7029 48.2047 73.7735 48.1813 73.8676 48.0877L74.6795 47.1053C74.9619 46.7544 75.1619 46.5322 75.2796 46.4386C75.3972 46.345 75.4561 46.3918 75.4561 46.5789C75.4561 46.7895 75.3502 47.117 75.1384 47.5614C74.9266 48.0058 74.6677 48.4152 74.3618 48.7895C74.0559 49.1403 73.7735 49.3158 73.5146 49.3158C73.2322 49.3158 73.0087 49.117 72.8439 48.7193Z" fill="black"/>
<path d="M76.5429 48.3333C76.0487 47.8655 75.8016 47.2807 75.8016 46.5789C75.8016 46.0175 75.9193 45.421 76.1546 44.7895C76.3899 44.1579 76.6253 43.5731 76.8606 43.0351C77.1194 42.4971 77.2959 42.1345 77.3901 41.9474C77.3195 41.924 77.2018 41.8772 77.0371 41.807C76.8723 41.7368 76.7782 41.7134 76.7547 41.7368C76.59 41.7836 76.237 42.1579 75.6957 42.8596C75.3427 43.3041 75.1309 43.5497 75.0603 43.5965C75.0368 43.6199 75.0015 43.6316 74.9544 43.6316C74.8838 43.6316 74.8368 43.5965 74.8132 43.5263C74.7897 43.4561 74.8132 43.3509 74.8838 43.2105C75.025 42.9766 75.2839 42.5672 75.6604 41.9825C76.0369 41.3977 76.237 41.1287 76.2605 41.1754C76.1899 41.0351 76.1546 40.8596 76.1546 40.6491C76.1546 40.2749 76.2723 39.8655 76.5076 39.4211C76.7665 38.9532 77.0488 38.5673 77.3548 38.2632C77.6607 37.9591 77.896 37.8304 78.0608 37.8772L78.449 37.8421C78.7785 37.8421 78.8962 38.0058 78.802 38.3333C78.7079 38.731 78.5432 39.117 78.3078 39.4912C78.0961 39.8421 77.8607 40.193 77.6019 40.5439C77.3665 40.8947 77.2018 41.1287 77.1077 41.2456C77.2959 41.2924 77.5195 41.3626 77.7784 41.4561C78.0608 41.5263 78.249 41.5965 78.3431 41.6667C78.4608 41.7368 78.5196 41.8421 78.5196 41.9825C78.5196 42.0994 78.4843 42.2515 78.4137 42.4386L78.0961 43.1404C77.7195 43.8655 77.4136 44.5672 77.1783 45.2456C76.9665 45.7836 76.8606 46.3099 76.8606 46.8246C76.8606 47.1988 76.9429 47.538 77.1077 47.8421C77.2959 47.7485 77.4607 47.6082 77.6019 47.4211C77.7431 47.2105 77.8725 46.9883 77.9902 46.7544C78.1314 46.4971 78.249 46.2982 78.3431 46.1579C78.3902 46.0643 78.4255 46.0175 78.449 46.0175C78.4961 45.9942 78.5432 46.0058 78.5902 46.0526C78.6373 46.0994 78.6726 46.1462 78.6961 46.193C78.7197 46.2398 78.7314 46.3099 78.7314 46.4035C78.7314 46.4971 78.7079 46.6374 78.6608 46.8246C78.5432 47.2222 78.3314 47.6082 78.0255 47.9825C77.7431 48.3567 77.4371 48.5439 77.1077 48.5439C76.8723 48.5439 76.6841 48.4737 76.5429 48.3333ZM77.7784 39.0702L77.7078 39.0351C77.6842 39.0585 77.5901 39.1754 77.4254 39.386C77.2606 39.5965 77.1665 39.8187 77.143 40.0526L77.7784 39.0702Z" fill="black"/>
<path d="M78.721 48.9298C78.6974 48.9298 78.6857 48.9181 78.6857 48.8947C78.3327 48.5205 78.1562 47.9942 78.1562 47.3158C78.1562 47.0351 78.2032 46.6608 78.2974 46.193C78.415 45.6784 78.6386 44.9766 78.968 44.0877C79.2975 43.1988 79.7093 42.3918 80.2035 41.6667C80.7212 40.9181 81.2743 40.5439 81.8626 40.5439C81.9332 40.5439 82.0626 40.5673 82.2509 40.614C82.4156 40.6608 82.545 40.7544 82.6392 40.8947C82.7568 41.0117 82.8157 41.152 82.8157 41.3158C82.8157 41.4795 82.7686 41.6433 82.6745 41.807C82.3685 42.3216 82.0038 42.7895 81.5802 43.2105C81.1801 43.6316 80.8507 43.8421 80.5918 43.8421C80.4977 43.8421 80.4035 43.7953 80.3094 43.7018C80.1682 43.5614 80.0976 43.4912 80.0976 43.4912C79.7211 44.3801 79.4269 45.1287 79.2151 45.7368C79.0269 46.3216 78.9328 46.8947 78.9328 47.4561C78.9328 47.8538 79.0033 48.2164 79.1445 48.5439C79.3093 48.9181 79.7093 48.7544 80.3447 48.0526C81.0036 47.3509 81.5802 46.6725 82.0744 46.0175C82.5686 45.3626 82.8745 44.9649 82.9922 44.8246C83.0392 45.2456 82.8745 45.8187 82.498 46.5439C82.1214 47.2456 81.639 47.8772 81.0507 48.4386C80.4624 48.9766 79.9329 49.2456 79.4622 49.2456C79.1798 49.2456 78.9328 49.1404 78.721 48.9298ZM80.2035 43.3158C80.2271 43.3392 80.2624 43.3509 80.3094 43.3509C80.38 43.3509 80.4506 43.3275 80.5212 43.2807C80.6153 43.2105 80.6742 43.1637 80.6977 43.1404C81.0742 42.8363 81.3802 42.4854 81.6155 42.0877C81.8743 41.6901 82.0038 41.386 82.0038 41.1754C82.0038 41.0117 81.8861 41.0234 81.6508 41.2105C81.439 41.3977 81.1331 41.7953 80.733 42.4035C80.7095 42.4503 80.6036 42.614 80.4153 42.8947C80.2506 43.152 80.18 43.2924 80.2035 43.3158Z" fill="black"/>
<rect x="14" y="18" width="87" height="53" stroke="#0DABAB" stroke-width="2"/>
<circle cx="12.5" cy="12.5" r="12.5" fill="#D64141"/>
<circle cx="105.5" cy="73.5" r="11.5" fill="#0DABAB" stroke="#0DABAB" stroke-width="2"/>
<path d="M17.4444 8.4H15.2222V7.8C15.2222 7.32261 15.0466 6.86477 14.7341 6.52721C14.4215 6.18964 13.9976 6 13.5556 6H12.4444C12.0024 6 11.5785 6.18964 11.2659 6.52721C10.9534 6.86477 10.7778 7.32261 10.7778 7.8V8.4H8.55556C8.40821 8.4 8.26691 8.46321 8.16272 8.57574C8.05853 8.68826 8 8.84087 8 9C8 9.15913 8.05853 9.31174 8.16272 9.42426C8.26691 9.53679 8.40821 9.6 8.55556 9.6H9.11111V16.2C9.11111 16.6774 9.28671 17.1352 9.59927 17.4728C9.91183 17.8104 10.3358 18 10.7778 18H15.2222C15.6642 18 16.0882 17.8104 16.4007 17.4728C16.7133 17.1352 16.8889 16.6774 16.8889 16.2V9.6H17.4444C17.5918 9.6 17.7331 9.53679 17.8373 9.42426C17.9415 9.31174 18 9.15913 18 9C18 8.84087 17.9415 8.68826 17.8373 8.57574C17.7331 8.46321 17.5918 8.4 17.4444 8.4ZM11.8889 7.8C11.8889 7.64087 11.9474 7.48826 12.0516 7.37574C12.1558 7.26321 12.2971 7.2 12.4444 7.2H13.5556C13.7029 7.2 13.8442 7.26321 13.9484 7.37574C14.0526 7.48826 14.1111 7.64087 14.1111 7.8V8.4H11.8889V7.8ZM15.7778 16.2C15.7778 16.3591 15.7192 16.5117 15.6151 16.6243C15.5109 16.7368 15.3696 16.8 15.2222 16.8H10.7778C10.6304 16.8 10.4891 16.7368 10.3849 16.6243C10.2808 16.5117 10.2222 16.3591 10.2222 16.2V9.6H15.7778V16.2Z" fill="white"/>
<path d="M101.387 68.4H102.5C102.686 68.4 102.864 68.3263 102.995 68.195C103.126 68.0637 103.2 67.8857 103.2 67.7C103.2 67.5143 103.126 67.3363 102.995 67.205C102.864 67.0737 102.686 67 102.5 67H99.7C99.6085 67.0011 99.5182 67.0201 99.434 67.056C99.263 67.127 99.127 67.263 99.056 67.434C99.0201 67.5182 99.0011 67.6085 99 67.7V70.5C99 70.6857 99.0737 70.8637 99.205 70.995C99.3363 71.1262 99.5143 71.2 99.7 71.2C99.8857 71.2 100.064 71.1262 100.195 70.995C100.326 70.8637 100.4 70.6857 100.4 70.5V69.387L104.453 73.447C104.518 73.5126 104.595 73.5647 104.681 73.6002C104.766 73.6358 104.858 73.6541 104.95 73.6541C105.042 73.6541 105.134 73.6358 105.219 73.6002C105.305 73.5647 105.382 73.5126 105.447 73.447C105.513 73.3819 105.565 73.3045 105.6 73.2192C105.636 73.1339 105.654 73.0424 105.654 72.95C105.654 72.8576 105.636 72.7661 105.6 72.6808C105.565 72.5955 105.513 72.5181 105.447 72.453L101.387 68.4ZM112.3 76.8C112.114 76.8 111.936 76.8737 111.805 77.005C111.674 77.1363 111.6 77.3143 111.6 77.5V78.613L107.547 74.553C107.415 74.4212 107.236 74.3471 107.05 74.3471C106.864 74.3471 106.685 74.4212 106.553 74.553C106.421 74.6848 106.347 74.8636 106.347 75.05C106.347 75.2364 106.421 75.4152 106.553 75.547L110.613 79.6H109.5C109.314 79.6 109.136 79.6737 109.005 79.805C108.874 79.9363 108.8 80.1143 108.8 80.3C108.8 80.4857 108.874 80.6637 109.005 80.795C109.136 80.9263 109.314 81 109.5 81H112.3C112.391 80.9989 112.482 80.9799 112.566 80.944C112.737 80.873 112.873 80.737 112.944 80.566C112.98 80.4818 112.999 80.3915 113 80.3V77.5C113 77.3143 112.926 77.1363 112.795 77.005C112.664 76.8737 112.486 76.8 112.3 76.8Z" fill="white"/>
</svg>
