<svg width="21" height="21" viewBox="0 0 21 21" fill="none" xmlns="http://www.w3.org/2000/svg">
<path d="M19.7141 18.2941L1.71409 0.294092C1.52579 0.105788 1.27039 -1.9841e-09 1.00409 0C0.73779 1.9841e-09 0.482395 0.105788 0.294092 0.294092C0.105788 0.482395 1.9841e-09 0.73779 0 1.00409C-1.9841e-09 1.27039 0.105788 1.52579 0.294092 1.71409L2.00409 3.41409V17.0041C2.00409 17.7997 2.32016 18.5628 2.88277 19.1254C3.44538 19.688 4.20844 20.0041 5.00409 20.0041H15.0041C15.4681 20.0025 15.9255 19.8934 16.3402 19.6851C16.7549 19.4769 17.1157 19.1753 17.3941 18.8041L18.2941 19.7141C18.3871 19.8078 18.4977 19.8822 18.6195 19.933C18.7414 19.9838 18.8721 20.0099 19.0041 20.0099C19.1361 20.0099 19.2668 19.9838 19.3887 19.933C19.5105 19.8822 19.6211 19.8078 19.7141 19.7141C19.8078 19.6211 19.8822 19.5105 19.933 19.3887C19.9838 19.2668 20.0099 19.1361 20.0099 19.0041C20.0099 18.8721 19.9838 18.7414 19.933 18.6195C19.8822 18.4977 19.8078 18.3871 19.7141 18.2941ZM15.0041 18.0041H5.00409C4.73888 18.0041 4.48452 17.8987 4.29699 17.7112C4.10945 17.5237 4.00409 17.2693 4.00409 17.0041V5.41409L15.9341 17.3441C15.8648 17.5358 15.7386 17.7017 15.5724 17.8197C15.4062 17.9376 15.2079 18.002 15.0041 18.0041ZM6.66409 2.00409H10.0041V5.00409C10.0041 5.79974 10.3202 6.5628 10.8828 7.12541C11.4454 7.68802 12.2084 8.00409 13.0041 8.00409H16.0041V11.3441C16.0041 11.6093 16.1094 11.8637 16.297 12.0512C16.4845 12.2387 16.7389 12.3441 17.0041 12.3441C17.2693 12.3441 17.5237 12.2387 17.7112 12.0512C17.8987 11.8637 18.0041 11.6093 18.0041 11.3441V7.00409C18.0041 7.00409 18.0041 7.00409 18.0041 6.94409C17.9937 6.85223 17.9736 6.76172 17.9441 6.67409V6.58409C17.896 6.48127 17.8319 6.38676 17.7541 6.30409L11.7541 0.304092C11.6714 0.226308 11.5769 0.162173 11.4741 0.114092H11.3841L11.0641 0.00409162H6.66409C6.39888 0.00409162 6.14452 0.109448 5.95698 0.296985C5.76945 0.484521 5.66409 0.738875 5.66409 1.00409C5.66409 1.26931 5.76945 1.52366 5.95698 1.7112C6.14452 1.89873 6.39888 2.00409 6.66409 2.00409ZM12.0041 3.41409L14.5941 6.00409H13.0041C12.7389 6.00409 12.4845 5.89873 12.297 5.7112C12.1094 5.52366 12.0041 5.26931 12.0041 5.00409V3.41409Z" fill="#0DABAB"/>
</svg>
