<svg width="14" height="14" viewBox="0 0 14 14" fill="none" xmlns="http://www.w3.org/2000/svg">
<path d="M11.9497 2.05021C10.9708 1.07125 9.7235 0.40456 8.36563 0.134463C7.00777 -0.135633 5.6003 0.00298991 4.32122 0.532803C3.04214 1.06262 1.94889 1.95982 1.17972 3.11097C0.410547 4.26211 4.53858e-06 5.61549 4.36999e-06 6.99996C4.2014e-06 8.38443 0.410547 9.73781 1.17972 10.8889C1.94889 12.0401 3.04214 12.9373 4.32122 13.4671C5.6003 13.9969 7.00777 14.1355 8.36563 13.8655C9.7235 13.5954 10.9708 12.9287 11.9497 11.9497C12.5998 11.2997 13.1154 10.528 13.4672 9.67874C13.8189 8.82946 14 7.91921 14 6.99996C14 6.08071 13.8189 5.17045 13.4672 4.32118C13.1154 3.4719 12.5998 2.70022 11.9497 2.05021ZM2.57988 10.4301C1.75528 9.35219 1.35021 8.01147 1.43998 6.65726C1.52975 5.30306 2.10825 4.02754 3.06792 3.06787C4.02758 2.1082 5.30311 1.5297 6.65731 1.43993C8.01151 1.35017 9.35223 1.75524 10.4302 2.57984L2.57988 10.4301ZM3.56983 11.4201L11.4201 3.56978C12.2447 4.64773 12.6498 5.98845 12.56 7.34265C12.4703 8.69686 11.8918 9.97238 10.9321 10.932C9.97242 11.8917 8.6969 12.4702 7.3427 12.56C5.9885 12.6498 4.64777 12.2447 3.56983 11.4201Z" fill="#0DAAAA"/>
</svg>
