<svg width="21" height="20" viewBox="0 0 21 20" fill="none" xmlns="http://www.w3.org/2000/svg">
<path d="M18.8503 5.31998C18.0394 3.80444 16.8554 2.52067 15.4103 1.58998C14.1025 0.74866 12.6166 0.223924 11.0705 0.0574623C9.52438 -0.108999 7.96077 0.087402 6.50387 0.631061C5.04697 1.17472 3.73693 2.05066 2.67784 3.18927C1.61876 4.32789 0.8398 5.69781 0.402866 7.19019C-0.034067 8.68258 -0.116937 10.2563 0.16084 11.7863C0.438617 13.3163 1.06939 14.7605 2.00303 16.004C2.93668 17.2476 4.14747 18.2563 5.53921 18.9499C6.93096 19.6436 8.46529 20.0031 10.0203 20H10.3103C12.0094 19.9498 13.6676 19.4674 15.1284 18.5983C16.5892 17.7292 17.8044 16.5021 18.6591 15.0328C19.5138 13.5635 19.9799 11.9006 20.0134 10.2012C20.0469 8.5017 19.6466 6.82175 18.8503 5.31998ZM9.02032 17.93C7.09846 17.6741 5.33494 16.7289 4.05767 15.2703C2.7804 13.8116 2.0763 11.9388 2.0763 9.99998C2.0763 8.06116 2.7804 6.18831 4.05767 4.72968C5.33494 3.27105 7.09846 2.3259 9.02032 2.06998V17.93ZM11.0203 2.06998C11.8848 2.18057 12.7257 2.43047 13.5103 2.80998L11.0203 7.11998V2.06998ZM11.0203 11.07L15.1903 3.89998C15.8051 4.42793 16.3377 5.04473 16.7703 5.72998L11.0203 15.69V11.07ZM12.1703 17.65L17.7603 7.99998C17.9294 8.65333 18.0167 9.32513 18.0203 9.99998C18.0191 11.746 17.4467 13.4436 16.3904 14.8339C15.3342 16.2242 13.8521 17.2307 12.1703 17.7V17.65Z" fill="#0DABAB"/>
</svg>
