<svg width="20" height="21" viewBox="0 0 20 21" fill="none" xmlns="http://www.w3.org/2000/svg">
<path d="M6.58909 2.23059C6.75097 2.27314 6.92094 2.27439 7.08343 2.2342C7.24591 2.19402 7.39571 2.11369 7.51909 2.00059H12.6191L11.3491 6.74059C11.3086 6.88891 11.3029 7.04457 11.3324 7.19545C11.3619 7.34634 11.4258 7.4884 11.5191 7.61059C11.6122 7.7316 11.7319 7.82967 11.8688 7.89727C12.0058 7.96488 12.1564 8.00022 12.3091 8.00059H15.9191L14.7891 9.24059C14.6118 9.43705 14.5197 9.69576 14.5328 9.96005C14.5459 10.2243 14.6632 10.4726 14.8591 10.6506C15.0425 10.8173 15.2813 10.9099 15.5291 10.9106C15.6686 10.9103 15.8066 10.8807 15.934 10.8239C16.0615 10.7671 16.1756 10.6842 16.2691 10.5806L18.9191 7.67059C19.0504 7.52526 19.1361 7.34458 19.1657 7.15097C19.1952 6.95736 19.1672 6.75934 19.0852 6.58148C19.0032 6.40362 18.8708 6.25376 18.7044 6.1505C18.5379 6.04723 18.3449 5.9951 18.1491 6.00059H13.6091L14.9191 1.26059C14.9582 1.11151 14.9622 0.955416 14.931 0.8045C14.8998 0.653583 14.8341 0.511926 14.7391 0.390587C14.6429 0.265486 14.5184 0.164933 14.3759 0.0971496C14.2334 0.0293659 14.0768 -0.00372377 13.9191 0.00058648H6.91909C6.69333 -0.00714676 6.4716 0.0617862 6.29001 0.196158C6.10843 0.330531 5.97769 0.522425 5.91909 0.740587V1.00059C5.84745 1.25251 5.8775 1.52248 6.00278 1.75248C6.12807 1.98248 6.33859 2.15415 6.58909 2.23059ZM19.5891 18.2906L1.58909 0.290586C1.39448 0.148711 1.1552 0.081837 0.915228 0.102254C0.675256 0.12267 0.450714 0.229006 0.282866 0.40172C0.115018 0.574433 0.0151391 0.801921 0.00158571 1.04238C-0.0119677 1.28283 0.0617143 1.52011 0.209091 1.71059L4.52909 6.00059L3.26909 10.7406C3.23003 10.8897 3.22595 11.0458 3.25717 11.1967C3.2884 11.3476 3.35408 11.4892 3.44909 11.6106C3.54225 11.7316 3.66189 11.8297 3.79883 11.8973C3.93577 11.9649 4.08637 12.0002 4.23909 12.0006H8.07909L6.26909 18.7406C6.21047 18.958 6.22696 19.1889 6.31589 19.3958C6.40482 19.6027 6.56098 19.7735 6.75909 19.8806C6.90651 19.9602 7.07157 20.0014 7.23909 20.0006C7.37863 20.0003 7.51656 19.9707 7.64401 19.9139C7.77146 19.8571 7.8856 19.7742 7.97909 19.6706L12.8291 14.3306L18.2091 19.7106C18.3021 19.8043 18.4127 19.8787 18.5345 19.9295C18.6564 19.9802 18.7871 20.0064 18.9191 20.0064C19.0511 20.0064 19.1818 19.9802 19.3037 19.9295C19.4255 19.8787 19.5361 19.8043 19.6291 19.7106C19.7228 19.6176 19.7972 19.507 19.848 19.3852C19.8988 19.2633 19.9249 19.1326 19.9249 19.0006C19.9249 18.8686 19.8988 18.7379 19.848 18.616C19.7972 18.4942 19.7228 18.3835 19.6291 18.2906H19.5891ZM5.53909 10.0006L6.16909 7.66059L8.50909 10.0006H5.53909ZM9.26909 15.2806L10.2691 11.7206L11.4691 12.9106L9.26909 15.2806Z" fill="#0DABAB"/>
</svg>
