<svg width="53" height="53" viewBox="0 0 53 53" fill="none" xmlns="http://www.w3.org/2000/svg">
<g filter="url(#filter0_d_1_11152)">
<path d="M4 10C4 4.47715 8.47715 0 14 0H25C30.5228 0 35 4.47715 35 10V35C35 40.5228 30.5228 45 25 45H14C8.47715 45 4 40.5228 4 35V10Z" fill="url(#paint0_linear_1_11152)" fill-opacity="0.4"/>
<path d="M4 18C4 12.4772 8.47715 8 14 8H39C44.5228 8 49 12.4772 49 18V35C49 40.5228 44.5228 45 39 45H14C8.47715 45 4 40.5228 4 35V18Z" fill="url(#paint1_linear_1_11152)"/>
<path d="M8 30C8 26.6863 10.6863 24 14 24H39C42.3137 24 45 26.6863 45 30V35C45 38.3137 42.3137 41 39 41H18C12.4772 41 8 36.5228 8 31V30Z" fill="url(#paint2_linear_1_11152)"/>
</g>
<defs>
<filter id="filter0_d_1_11152" x="0" y="0" width="53" height="53" filterUnits="userSpaceOnUse" color-interpolation-filters="sRGB">
<feFlood flood-opacity="0" result="BackgroundImageFix"/>
<feColorMatrix in="SourceAlpha" type="matrix" values="0 0 0 0 0 0 0 0 0 0 0 0 0 0 0 0 0 0 127 0" result="hardAlpha"/>
<feOffset dy="4"/>
<feGaussianBlur stdDeviation="2"/>
<feColorMatrix type="matrix" values="0 0 0 0 0.780392 0 0 0 0 0.862745 0 0 0 0 0.905882 0 0 0 0.1 0"/>
<feBlend mode="normal" in2="BackgroundImageFix" result="effect1_dropShadow_1_11152"/>
<feBlend mode="normal" in="SourceGraphic" in2="effect1_dropShadow_1_11152" result="shape"/>
</filter>
<linearGradient id="paint0_linear_1_11152" x1="-2.2" y1="-4.25676" x2="52.239" y2="35.2039" gradientUnits="userSpaceOnUse">
<stop stop-color="#FFCB5D"/>
<stop offset="1" stop-color="#FFB645"/>
</linearGradient>
<linearGradient id="paint1_linear_1_11152" x1="-5" y1="4.5" x2="40.7012" y2="62.9848" gradientUnits="userSpaceOnUse">
<stop stop-color="#FFD680"/>
<stop offset="1" stop-color="#FFC060"/>
</linearGradient>
<linearGradient id="paint2_linear_1_11152" x1="-8" y1="24" x2="13.975" y2="63.5306" gradientUnits="userSpaceOnUse">
<stop stop-color="#FFEBC6"/>
<stop offset="1" stop-color="#FFC252" stop-opacity="0"/>
</linearGradient>
</defs>
</svg>
