<svg width="15" height="12" viewBox="0 0 15 12" fill="none" xmlns="http://www.w3.org/2000/svg">
<path d="M12.75 0H2.25C1.65326 0 1.08097 0.237053 0.65901 0.65901C0.237053 1.08097 0 1.65326 0 2.25V9.75C0 10.3467 0.237053 10.919 0.65901 11.341C1.08097 11.7629 1.65326 12 2.25 12H12.75C13.3467 12 13.919 11.7629 14.341 11.341C14.7629 10.919 15 10.3467 15 9.75V2.25C15 1.65326 14.7629 1.08097 14.341 0.65901C13.919 0.237053 13.3467 0 12.75 0ZM2.25 10.5C2.05109 10.5 1.86032 10.421 1.71967 10.2803C1.57902 10.1397 1.5 9.94891 1.5 9.75V7.935L3.975 5.4675C4.1152 5.33008 4.30369 5.25311 4.5 5.25311C4.69631 5.25311 4.8848 5.33008 5.025 5.4675L10.0575 10.5H2.25ZM13.5 9.75C13.5 9.94891 13.421 10.1397 13.2803 10.2803C13.1397 10.421 12.9489 10.5 12.75 10.5H12.1725L9.315 7.6275L9.975 6.9675C10.1152 6.83008 10.3037 6.75311 10.5 6.75311C10.6963 6.75311 10.8848 6.83008 11.025 6.9675L13.5 9.435V9.75ZM13.5 7.32L12.09 5.9175C11.6625 5.50682 11.0928 5.27747 10.5 5.27747C9.90723 5.27747 9.33746 5.50682 8.91 5.9175L8.25 6.5775L6.09 4.4175C5.66254 4.00682 5.09277 3.77747 4.5 3.77747C3.90723 3.77747 3.33746 4.00682 2.91 4.4175L1.5 5.82V2.25C1.5 2.05109 1.57902 1.86032 1.71967 1.71967C1.86032 1.57902 2.05109 1.5 2.25 1.5H12.75C12.9489 1.5 13.1397 1.57902 13.2803 1.71967C13.421 1.86032 13.5 2.05109 13.5 2.25V7.32Z" fill="#0DABAB"/>
</svg>
