<svg width="15" height="12" viewBox="0 0 15 12" fill="none" xmlns="http://www.w3.org/2000/svg">
<path d="M14.2079 1.08215C14.112 0.986417 13.9979 0.910433 13.8721 0.858579C13.7464 0.806726 13.6116 0.780029 13.4753 0.780029C13.3391 0.780029 13.2043 0.806726 13.0786 0.858579C12.9528 0.910433 12.8387 0.986417 12.7428 1.08215L5.05631 8.70155L1.82694 5.49445C1.72736 5.39922 1.6098 5.32434 1.48098 5.27409C1.35216 5.22383 1.2146 5.19919 1.07616 5.20156C0.937724 5.20393 0.801111 5.23327 0.674125 5.28791C0.54714 5.34254 0.432268 5.4214 0.33607 5.51999C0.239871 5.61857 0.16423 5.73495 0.113464 5.86247C0.0626982 5.98999 0.0378017 6.12617 0.0401968 6.26321C0.042592 6.40026 0.0722318 6.5355 0.127423 6.66121C0.182615 6.78692 0.262278 6.90063 0.361864 6.99586L4.32377 10.9179C4.41968 11.0136 4.53379 11.0896 4.65952 11.1415C4.78525 11.1933 4.9201 11.22 5.05631 11.22C5.19251 11.22 5.32736 11.1933 5.45309 11.1415C5.57882 11.0896 5.69293 11.0136 5.78885 10.9179L14.2079 2.58356C14.3126 2.48791 14.3962 2.37183 14.4534 2.24263C14.5105 2.11343 14.54 1.97391 14.54 1.83285C14.54 1.6918 14.5105 1.55228 14.4534 1.42307C14.3962 1.29387 14.3126 1.17779 14.2079 1.08215Z" fill="white"/>
</svg>
