<svg width="20" height="16" viewBox="0 0 20 16" fill="none" xmlns="http://www.w3.org/2000/svg">
<path d="M6.94 -3.03357e-07C6.84813 0.0104157 6.75763 0.0305278 6.67 0.0599992L6.58 0.0599992C6.47718 0.108081 6.38266 0.172216 6.3 0.25L0.3 6.25C0.222216 6.33266 0.158081 6.42718 0.109999 6.53L0.109999 6.62L-3.96025e-07 6.94L-1.31134e-07 13C-9.63552e-08 13.7956 0.316071 14.5587 0.87868 15.1213C1.44129 15.6839 2.20435 16 3 16L17 16C17.7956 16 18.5587 15.6839 19.1213 15.1213C19.6839 14.5587 20 13.7956 20 13L20 3C20 2.20435 19.6839 1.44129 19.1213 0.878678C18.5587 0.31607 17.7956 -7.77873e-07 17 -7.43094e-07L7 -3.0598e-07C7 -3.0598e-07 7 -3.0598e-07 6.94 -3.03357e-07ZM3.41 6L6 3.41L6 6L3.41 6ZM17 2C17.2652 2 17.5196 2.10536 17.7071 2.29289C17.8946 2.48043 18 2.73478 18 3L18 13C18 13.2652 17.8946 13.5196 17.7071 13.7071C17.5196 13.8946 17.2652 14 17 14L3 14C2.73478 14 2.48043 13.8946 2.29289 13.7071C2.10536 13.5196 2 13.2652 2 13L2 8L7 8C7.26522 8 7.51957 7.89464 7.70711 7.70711C7.89464 7.51957 8 7.26522 8 7L8 2L17 2Z" fill="#0DABAB"/>
</svg>
