<svg width="16" height="16" viewBox="0 0 16 16" fill="none" xmlns="http://www.w3.org/2000/svg">
<path d="M7.12755 8.87249C7.44015 9.18506 7.94908 9.18506 8.2616 8.8725L8.26161 8.87249C8.57507 8.55903 8.57502 8.05184 8.26162 7.73846L8.26161 7.73846C7.94903 7.42588 7.44012 7.42592 7.12755 7.73846C7.12755 7.73846 7.12755 7.73846 7.12755 7.73846M7.12755 8.87249L7.02149 8.97856C6.6495 8.60657 6.64942 8.00446 7.02149 7.63239L7.12755 7.73846M7.12755 8.87249C7.12755 8.87249 7.12755 8.87249 7.12755 8.87249M7.12755 8.87249L7.12755 8.87249M7.12755 7.73846C6.81407 8.05194 6.81414 8.55907 7.12755 8.87249M7.12755 7.73846V8.87249M5.03905 3.90398L5.03903 3.90398C4.87577 3.9563 4.74545 4.0805 4.68533 4.24106L4.68532 4.24108L0.885629 14.3935L0.885617 14.3935C0.750748 14.7541 1.01427 15.15 1.41032 15.15H1.41033H1.41034H1.41034H1.41035H1.41036H1.41036H1.41037H1.41038H1.41039H1.41039H1.4104H1.41041H1.41042H1.41042H1.41043H1.41044H1.41045H1.41045H1.41046H1.41047H1.41048H1.41048H1.41049H1.4105H1.41051H1.41051H1.41052H1.41053H1.41053H1.41054H1.41055H1.41056H1.41057H1.41057H1.41058H1.41059H1.41059H1.4106H1.41061H1.41062H13.6827C13.9921 15.15 14.2429 14.8992 14.2429 14.5898C14.2429 14.2805 13.9921 14.0297 13.6827 14.0297H4.50493L11.7589 11.3147L11.7589 11.3147C11.9195 11.2546 12.0437 11.1243 12.0961 10.961L13.565 6.37535L14.986 4.95439C15.2047 4.73563 15.2047 4.38098 14.986 4.16222L14.8799 4.26828L14.986 4.16222L11.8378 1.01408C11.8378 1.01407 11.8378 1.01407 11.8378 1.01407C11.6191 0.795302 11.2644 0.795318 11.0456 1.01407L9.62467 2.435L5.03905 3.90398ZM11.4417 2.20235L13.7977 4.55832L13.0729 5.28307L10.7169 2.92707L11.4417 2.20235ZM11.112 10.3606L3.63209 13.1601L6.79069 10.0016C7.52215 10.3912 8.44527 10.2732 9.05381 9.66469C9.80501 8.9135 9.80504 7.69751 9.05381 6.94631C8.30423 6.19676 7.08496 6.19672 6.33543 6.94631C5.71818 7.56358 5.61217 8.48783 5.99803 9.20997L2.8399 12.368L5.63941 4.88806L9.7703 3.56475L12.4353 6.22974L11.112 10.3606Z" fill="#0DAAAA" stroke="#0DAAAA" stroke-width="0.3"/>
</svg>
