<svg width="18" height="18" viewBox="0 0 18 18" fill="none" xmlns="http://www.w3.org/2000/svg">
<path d="M4.5 7.2C4.322 7.2 4.14799 7.25278 3.99999 7.35168C3.85198 7.45057 3.73663 7.59113 3.66851 7.75558C3.60039 7.92004 3.58257 8.101 3.61729 8.27558C3.65202 8.45016 3.73774 8.61053 3.8636 8.7364C3.98947 8.86226 4.14984 8.94798 4.32442 8.98271C4.499 9.01743 4.67996 8.99961 4.84441 8.93149C5.00887 8.86337 5.14943 8.74802 5.24832 8.60001C5.34722 8.45201 5.4 8.278 5.4 8.1C5.4 7.8613 5.30518 7.63239 5.1364 7.4636C4.96761 7.29482 4.73869 7.2 4.5 7.2ZM15.3 3.6H14.4V0.9C14.4 0.661305 14.3052 0.432387 14.1364 0.263604C13.9676 0.0948211 13.7387 0 13.5 0H4.5C4.2613 0 4.03239 0.0948211 3.8636 0.263604C3.69482 0.432387 3.6 0.661305 3.6 0.9V3.6H2.7C1.98392 3.6 1.29716 3.88446 0.790812 4.39081C0.284464 4.89716 0 5.58392 0 6.3V11.7C0 12.4161 0.284464 13.1028 0.790812 13.6092C1.29716 14.1155 1.98392 14.4 2.7 14.4H3.6V17.1C3.6 17.3387 3.69482 17.5676 3.8636 17.7364C4.03239 17.9052 4.2613 18 4.5 18H13.5C13.7387 18 13.9676 17.9052 14.1364 17.7364C14.3052 17.5676 14.4 17.3387 14.4 17.1V14.4H15.3C16.0161 14.4 16.7028 14.1155 17.2092 13.6092C17.7155 13.1028 18 12.4161 18 11.7V6.3C18 5.58392 17.7155 4.89716 17.2092 4.39081C16.7028 3.88446 16.0161 3.6 15.3 3.6ZM5.4 1.8H12.6V3.6H5.4V1.8ZM12.6 16.2H5.4V12.6H12.6V16.2ZM16.2 11.7C16.2 11.9387 16.1052 12.1676 15.9364 12.3364C15.7676 12.5052 15.5387 12.6 15.3 12.6H14.4V11.7C14.4 11.4613 14.3052 11.2324 14.1364 11.0636C13.9676 10.8948 13.7387 10.8 13.5 10.8H4.5C4.2613 10.8 4.03239 10.8948 3.8636 11.0636C3.69482 11.2324 3.6 11.4613 3.6 11.7V12.6H2.7C2.46131 12.6 2.23239 12.5052 2.0636 12.3364C1.89482 12.1676 1.8 11.9387 1.8 11.7V6.3C1.8 6.06131 1.89482 5.83239 2.0636 5.6636C2.23239 5.49482 2.46131 5.4 2.7 5.4H15.3C15.5387 5.4 15.7676 5.49482 15.9364 5.6636C16.1052 5.83239 16.2 6.06131 16.2 6.3V11.7Z" fill="#0DABAB"/>
</svg>
