<svg width="18" height="18" viewBox="0 0 18 18" fill="none" xmlns="http://www.w3.org/2000/svg">
<path d="M17.1 0H6.3C6.06131 0 5.83239 0.0948211 5.6636 0.263604C5.49482 0.432387 5.4 0.661305 5.4 0.9V4.5H3.6C3.3613 4.5 3.13239 4.59482 2.9636 4.7636C2.79482 4.93239 2.7 5.1613 2.7 5.4V9H0.9C0.661305 9 0.432387 9.09482 0.263604 9.2636C0.0948211 9.43239 0 9.6613 0 9.9V17.1C0 17.3387 0.0948211 17.5676 0.263604 17.7364C0.432387 17.9052 0.661305 18 0.9 18H8.1C8.33869 18 8.56761 17.9052 8.7364 17.7364C8.90518 17.5676 9 17.3387 9 17.1V15.3H12.6C12.8387 15.3 13.0676 15.2052 13.2364 15.0364C13.4052 14.8676 13.5 14.6387 13.5 14.4V12.6H17.1C17.3387 12.6 17.5676 12.5052 17.7364 12.3364C17.9052 12.1676 18 11.9387 18 11.7V0.9C18 0.661305 17.9052 0.432387 17.7364 0.263604C17.5676 0.0948211 17.3387 0 17.1 0ZM7.2 16.2H1.8V10.8H7.2V16.2ZM11.7 13.5H9V9.9C9 9.6613 8.90518 9.43239 8.7364 9.2636C8.56761 9.09482 8.33869 9 8.1 9H4.5V6.3H11.7V13.5ZM16.2 10.8H13.5V5.4C13.5 5.1613 13.4052 4.93239 13.2364 4.7636C13.0676 4.59482 12.8387 4.5 12.6 4.5H7.2V1.8H16.2V10.8Z" fill="#0DABAB"/>
</svg>
