<svg width="18" height="21" viewBox="0 0 18 21" fill="none" xmlns="http://www.w3.org/2000/svg">
<path d="M13 2.00409H12.41L12.71 1.71409C12.8032 1.62085 12.8772 1.51016 12.9277 1.38834C12.9781 1.26652 13.0041 1.13595 13.0041 1.00409C13.0041 0.872232 12.9781 0.741664 12.9277 0.619842C12.8772 0.49802 12.8032 0.38733 12.71 0.294092C12.6168 0.200853 12.5061 0.126892 12.3842 0.0764319C12.2624 0.0259715 12.1319 0 12 0C11.7337 0 11.4783 0.105788 11.29 0.294092L9.29 2.29409C9.19627 2.38705 9.12188 2.49766 9.07111 2.61951C9.02034 2.74137 8.9942 2.87208 8.9942 3.00409C8.9942 3.1361 9.02034 3.26681 9.07111 3.38867C9.12188 3.51053 9.19627 3.62113 9.29 3.71409L11.29 5.71409C11.383 5.80782 11.4936 5.88221 11.6154 5.93298C11.7373 5.98375 11.868 6.00989 12 6.00989C12.132 6.00989 12.2627 5.98375 12.3846 5.93298C12.5064 5.88221 12.617 5.80782 12.71 5.71409C12.8037 5.62113 12.8781 5.51053 12.9289 5.38867C12.9797 5.26681 13.0058 5.1361 13.0058 5.00409C13.0058 4.87208 12.9797 4.74137 12.9289 4.61951C12.8781 4.49766 12.8037 4.38705 12.71 4.29409L12.41 4.00409H13C13.7956 4.00409 14.5587 4.32016 15.1213 4.88277C15.6839 5.44538 16 6.20844 16 7.00409V9.00409C16 9.26931 16.1054 9.52366 16.2929 9.7112C16.4804 9.89873 16.7348 10.0041 17 10.0041C17.2652 10.0041 17.5196 9.89873 17.7071 9.7112C17.8946 9.52366 18 9.26931 18 9.00409V7.00409C18 5.67801 17.4732 4.40624 16.5355 3.46856C15.5979 2.53088 14.3261 2.00409 13 2.00409ZM13 16.0041H12V9.00409C12 8.73887 11.8946 8.48452 11.7071 8.29698C11.5196 8.10945 11.2652 8.00409 11 8.00409H4V7.00409C4 6.73888 3.89464 6.48452 3.70711 6.29699C3.51957 6.10945 3.26522 6.00409 3 6.00409C2.73478 6.00409 2.48043 6.10945 2.29289 6.29699C2.10536 6.48452 2 6.73888 2 7.00409V8.00409H1C0.734784 8.00409 0.48043 8.10945 0.292893 8.29698C0.105357 8.48452 0 8.73887 0 9.00409C0 9.26931 0.105357 9.52366 0.292893 9.7112C0.48043 9.89873 0.734784 10.0041 1 10.0041H2V17.0041C2 17.2693 2.10536 17.5237 2.29289 17.7112C2.48043 17.8987 2.73478 18.0041 3 18.0041H10V19.0041C10 19.2693 10.1054 19.5237 10.2929 19.7112C10.4804 19.8987 10.7348 20.0041 11 20.0041C11.2652 20.0041 11.5196 19.8987 11.7071 19.7112C11.8946 19.5237 12 19.2693 12 19.0041V18.0041H13C13.2652 18.0041 13.5196 17.8987 13.7071 17.7112C13.8946 17.5237 14 17.2693 14 17.0041C14 16.7389 13.8946 16.4845 13.7071 16.297C13.5196 16.1094 13.2652 16.0041 13 16.0041ZM10 16.0041H4V10.0041H10V16.0041Z" fill="#0DABAB"/>
</svg>
