<svg width="24" height="21" viewBox="0 0 24 21" fill="none" xmlns="http://www.w3.org/2000/svg">
<path opacity="0.4" d="M21.2397 7.71867C20.8074 7.71867 20.4553 7.36486 20.4495 6.92456V5.76559C20.4636 4.78182 20.0926 3.83281 19.4186 3.12811C18.7445 2.42341 17.8228 2.02098 16.8569 2.00967H16.014C15.5776 2.00967 15.2239 1.64933 15.2239 1.20483C15.2239 0.760333 15.5776 0.399994 16.014 0.399994H16.8569C19.7415 0.435254 22.0617 2.82722 22.0615 5.76559V6.91383C22.0671 7.12529 21.9886 7.3301 21.8438 7.48169C21.6989 7.63327 21.5 7.71875 21.2924 7.71867H21.2397Z" fill="white"/>
<path opacity="0.4" d="M2.80251 7.71874C2.59392 7.72154 2.3929 7.63914 2.24441 7.48991C2.09591 7.34067 2.01233 7.13704 2.01235 6.92456V5.76559C1.99545 4.3485 2.53632 2.98352 3.5142 1.97538C4.49208 0.967238 5.82555 0.399889 7.21691 0.399994H8.08083C8.51723 0.399994 8.871 0.760333 8.871 1.20483C8.871 1.64933 8.51723 2.00967 8.08083 2.00967H7.22745C6.25336 2.00664 5.31908 2.40312 4.63527 3.10973C3.95146 3.81633 3.57569 4.77356 3.59268 5.76559V6.92456C3.58692 7.36487 3.23483 7.71874 2.80251 7.71874Z" fill="white"/>
<path d="M22.0299 12.4726V15.4881C21.9962 18.389 19.7047 20.7373 16.8569 20.7893H16.0036C15.7014 20.825 15.406 20.6809 15.2439 20.4188C15.0818 20.1566 15.0818 19.823 15.2439 19.5608C15.406 19.2987 15.7014 19.1546 16.0036 19.1903H16.8569C18.8661 19.1844 20.4917 17.5238 20.4917 15.4773V12.4726H22.0299Z" fill="white"/>
<path d="M8.87085 19.9952C8.86518 20.4372 8.51471 20.7942 8.08069 20.8H7.21677C4.33217 20.7647 2.012 18.3728 2.01221 15.4344V12.4726H3.59254V15.4881C3.59251 17.5303 5.21176 19.1892 7.21677 19.2011H8.08069C8.28928 19.1982 8.4903 19.2806 8.63879 19.4298C8.78729 19.5791 8.87085 19.7827 8.87085 19.9952Z" fill="white"/>
<path d="M24 11.6678C24 12.1123 23.6462 12.4726 23.2098 12.4726H0.790167C0.35377 12.4726 0 12.1123 0 11.6678C0 11.2233 0.35377 10.8629 0.790167 10.8629H23.1782C23.3932 10.8542 23.6024 10.9351 23.7575 11.087C23.9126 11.2389 24 11.4486 24 11.6678Z" fill="white"/>
<path opacity="0.4" d="M17.489 8.92056V7.53623C17.489 6.8674 17.2282 6.22597 16.7639 5.75303C16.2996 5.2801 15.6698 5.0144 15.0132 5.0144H8.98684C7.61946 5.0144 6.51099 6.14347 6.51099 7.53623V8.92056C6.51644 9.08415 6.64537 9.21548 6.80598 9.22103H17.194C17.3547 9.21548 17.4836 9.08415 17.489 8.92056Z" fill="white"/>
<path d="M17.489 12.4726V13.6745C17.489 15.0673 16.3806 16.1963 15.0132 16.1963H8.98684C7.61946 16.1963 6.51099 15.0673 6.51099 13.6745V12.4726H17.489Z" fill="white"/>
</svg>
