<svg width="14" height="14" viewBox="0 0 14 14" fill="none" xmlns="http://www.w3.org/2000/svg">
<path d="M0.7 4.9C0.885652 4.9 1.0637 4.82625 1.19497 4.69497C1.32625 4.5637 1.4 4.38565 1.4 4.2V2.1C1.4 1.91435 1.47375 1.7363 1.60503 1.60503C1.7363 1.47375 1.91435 1.4 2.1 1.4H4.2C4.38565 1.4 4.5637 1.32625 4.69497 1.19497C4.82625 1.0637 4.9 0.885652 4.9 0.7C4.9 0.514348 4.82625 0.336301 4.69497 0.205025C4.5637 0.0737498 4.38565 0 4.2 0H2.1C1.54305 0 1.0089 0.221249 0.615076 0.615076C0.221249 1.0089 0 1.54305 0 2.1V4.2C0 4.38565 0.0737498 4.5637 0.205025 4.69497C0.336301 4.82625 0.514348 4.9 0.7 4.9ZM4.2 12.6H2.1C1.91435 12.6 1.7363 12.5263 1.60503 12.395C1.47375 12.2637 1.4 12.0857 1.4 11.9V9.8C1.4 9.61435 1.32625 9.4363 1.19497 9.30503C1.0637 9.17375 0.885652 9.1 0.7 9.1C0.514348 9.1 0.336301 9.17375 0.205025 9.30503C0.0737498 9.4363 0 9.61435 0 9.8V11.9C0 12.457 0.221249 12.9911 0.615076 13.3849C1.0089 13.7788 1.54305 14 2.1 14H4.2C4.38565 14 4.5637 13.9263 4.69497 13.795C4.82625 13.6637 4.9 13.4857 4.9 13.3C4.9 13.1143 4.82625 12.9363 4.69497 12.805C4.5637 12.6737 4.38565 12.6 4.2 12.6ZM7 4.2C6.44621 4.2 5.90486 4.36422 5.4444 4.67189C4.98395 4.97955 4.62506 5.41685 4.41314 5.92849C4.20121 6.44012 4.14576 7.00311 4.2538 7.54625C4.36184 8.0894 4.62851 8.58831 5.0201 8.9799C5.41169 9.37149 5.9106 9.63816 6.45375 9.7462C6.99689 9.85424 7.55988 9.79879 8.07151 9.58686C8.58315 9.37494 9.02045 9.01605 9.32811 8.5556C9.63578 8.09514 9.8 7.55379 9.8 7C9.8 6.25739 9.505 5.5452 8.9799 5.0201C8.4548 4.495 7.74261 4.2 7 4.2ZM7 8.4C6.72311 8.4 6.45243 8.31789 6.2222 8.16406C5.99197 8.01022 5.81253 7.79157 5.70657 7.53576C5.60061 7.27994 5.57288 6.99845 5.6269 6.72687C5.68092 6.4553 5.81426 6.20584 6.01005 6.01005C6.20584 5.81426 6.4553 5.68092 6.72687 5.6269C6.99845 5.57288 7.27994 5.60061 7.53576 5.70657C7.79157 5.81253 8.01022 5.99197 8.16406 6.2222C8.31789 6.45243 8.4 6.72311 8.4 7C8.4 7.3713 8.2525 7.7274 7.98995 7.98995C7.7274 8.2525 7.3713 8.4 7 8.4ZM11.9 0H9.8C9.61435 0 9.4363 0.0737498 9.30503 0.205025C9.17375 0.336301 9.1 0.514348 9.1 0.7C9.1 0.885652 9.17375 1.0637 9.30503 1.19497C9.4363 1.32625 9.61435 1.4 9.8 1.4H11.9C12.0857 1.4 12.2637 1.47375 12.395 1.60503C12.5263 1.7363 12.6 1.91435 12.6 2.1V4.2C12.6 4.38565 12.6737 4.5637 12.805 4.69497C12.9363 4.82625 13.1143 4.9 13.3 4.9C13.4857 4.9 13.6637 4.82625 13.795 4.69497C13.9263 4.5637 14 4.38565 14 4.2V2.1C14 1.54305 13.7788 1.0089 13.3849 0.615076C12.9911 0.221249 12.457 0 11.9 0ZM13.3 9.1C13.1143 9.1 12.9363 9.17375 12.805 9.30503C12.6737 9.4363 12.6 9.61435 12.6 9.8V11.9C12.6 12.0857 12.5263 12.2637 12.395 12.395C12.2637 12.5263 12.0857 12.6 11.9 12.6H9.8C9.61435 12.6 9.4363 12.6737 9.30503 12.805C9.17375 12.9363 9.1 13.1143 9.1 13.3C9.1 13.4857 9.17375 13.6637 9.30503 13.795C9.4363 13.9263 9.61435 14 9.8 14H11.9C12.457 14 12.9911 13.7788 13.3849 13.3849C13.7788 12.9911 14 12.457 14 11.9V9.8C14 9.61435 13.9263 9.4363 13.795 9.30503C13.6637 9.17375 13.4857 9.1 13.3 9.1Z" fill="#0DABAB"/>
</svg>
