<svg width="92" height="123" viewBox="0 0 92 123" fill="none" xmlns="http://www.w3.org/2000/svg">
<g clip-path="url(#clip0_1_11703)">
<path fill-rule="evenodd" clip-rule="evenodd" d="M89.7263 52.3658C89.8659 49.2556 88.2574 47.1277 85.258 45.9344C85.6463 45.686 86.0269 45.4502 86.3995 45.2193C87.2009 44.7227 87.9655 44.2489 88.6918 43.7223C90.6571 42.2973 91.5915 40.3234 91.3993 37.9068C91.1302 34.524 88.1993 31.7523 84.5738 32.0573C83.8978 32.1142 83.2317 32.2879 82.5529 32.4649C82.2376 32.5471 81.9195 32.63 81.5965 32.7023C81.5949 32.6929 81.5913 32.6781 81.5866 32.6589C81.5707 32.5927 81.5423 32.4753 81.5406 32.3575C81.5368 32.0919 81.5409 31.8256 81.545 31.5594C81.5529 31.0379 81.5609 30.5166 81.5096 30.001C81.4294 29.1945 81.7615 28.7535 82.4299 28.3466C84.6226 27.0115 86.7934 25.6388 88.94 24.2311C91.3466 22.6528 92.3281 20.3826 91.9042 17.5585C91.38 14.0658 87.8401 11.5564 84.364 12.2229C83.7168 12.347 83.0919 12.5863 82.4474 12.8331C82.1455 12.9486 81.8394 13.0659 81.5247 13.1737C81.5247 12.7872 81.524 12.3956 81.5233 12.0004C81.5217 11.1288 81.52 10.2401 81.526 9.35142C81.5597 4.34961 77.2006 -0.0126829 71.9619 2.77075e-05C63.4882 0.020582 55.0145 0.016898 46.5408 0.013214C42.7583 0.0115695 38.9758 0.00992501 35.1933 0.0104364C35.1184 0.0104461 35.0434 0.0100547 34.9683 0.00966299C34.6025 0.00775495 34.2353 0.00583947 33.8748 0.0502395C29.014 0.648726 25.4193 4.69854 25.4151 9.57016C25.4134 11.5875 25.4129 13.6049 25.4123 15.6223C25.4117 17.605 25.4112 19.5877 25.4095 21.5704C25.4094 21.7297 25.3994 21.8889 25.3886 22.063C25.3832 22.1489 25.3777 22.2384 25.3729 22.3333C25.2907 22.2967 25.2192 22.2653 25.1548 22.237C25.0349 22.1842 24.9397 22.1423 24.8456 22.0982C22.2548 20.8842 19.4561 21.4926 17.6395 23.6878C16.5611 24.9909 16.1142 26.5384 16.1116 28.1934C16.1072 30.9122 15.7447 33.5832 15.1624 36.228C14.2207 40.5052 12.6587 44.5798 11.0366 48.6329C10.8259 49.1595 10.6123 49.6851 10.3988 50.2108C9.34364 52.8082 8.28844 55.4057 7.56785 58.1242C6.81116 60.9789 6.51919 63.8298 7.45329 66.7235C8.37485 69.5783 9.24426 72.4514 10.0632 75.3371C10.7376 77.7136 11.3169 80.1171 11.4263 82.6055C11.4435 82.9987 11.4022 83.3007 11.0767 83.5854C9.24085 85.1919 7.41596 86.8109 5.59108 88.4299C5.16725 88.8059 4.74341 89.182 4.31944 89.5578C4.06448 89.7838 3.80936 90.0097 3.55423 90.2355C2.57991 91.098 1.60557 91.9605 0.640559 92.8332C-0.14855 93.5468 -0.206082 94.4195 0.454141 95.1558C1.01673 95.7832 1.95634 95.7902 2.69411 95.1503C3.75999 94.2259 4.81638 93.2905 5.87246 92.3549L5.9252 92.3081C8.01895 90.4532 10.1127 88.5983 12.1986 86.7347C12.5318 86.437 12.7945 86.4689 13.0854 86.7804C13.4053 87.1229 13.7291 87.4617 14.0529 87.8006C14.4627 88.2293 14.8725 88.6581 15.2742 89.0942C16.1842 90.0823 17.0909 91.0733 17.9977 92.0642C19.2283 93.4091 20.4588 94.754 21.6974 96.0915C23.5451 98.0869 25.4002 100.075 27.2553 102.064C28.2397 103.119 29.2241 104.175 30.2075 105.231C32.8228 108.04 35.4374 110.85 38.0488 113.663C38.5825 114.238 39.1108 114.818 39.6576 115.418C39.9137 115.699 40.1738 115.984 40.4405 116.276C40.2548 116.449 40.0726 116.618 39.893 116.785C39.5011 117.15 39.1211 117.503 38.7412 117.857C38.4726 118.107 38.2017 118.355 37.9307 118.603C37.2968 119.183 36.6628 119.763 36.0592 120.373C35.3444 121.095 35.4448 122.039 36.2233 122.672C36.8184 123.156 37.6402 123.108 38.2977 122.508C39.1284 121.75 39.9546 120.987 40.7808 120.225C41.6531 119.419 42.5254 118.614 43.4031 117.814C44.4711 116.842 44.5144 116.039 43.5254 114.974C42.4462 113.813 41.3681 112.65 40.29 111.488C39.1042 110.209 37.9185 108.93 36.7313 107.653C35.1021 105.9 33.4718 104.149 31.8416 102.397C30.0536 100.476 28.2657 98.5546 26.4791 96.6321L26.3489 96.492C22.568 92.4235 18.7871 88.355 15.0214 84.2726C14.8088 84.042 14.6587 83.6931 14.6131 83.3798C14.5141 82.7014 14.4418 82.0167 14.3695 81.3323C14.2328 80.0383 14.0962 78.7452 13.7798 77.4969C12.7664 73.4988 11.5733 69.5445 10.3813 65.594L10.3777 65.5821C9.93677 64.1208 9.8142 62.6437 10.1109 61.2029C10.5097 59.2667 11.0399 57.3397 11.7146 55.4813C12.3843 53.6367 13.0977 51.8077 13.8111 49.9787C14.6831 47.7428 15.5551 45.5071 16.3472 43.2433C17.2357 40.7043 17.8854 38.0717 18.4841 35.4452C19.0128 33.126 19.2177 30.7479 19.2413 28.3598C19.2505 27.4287 19.4458 26.5413 20.012 25.746C20.914 24.4789 22.7539 24.2127 23.9164 25.2387C24.9142 26.1193 25.3533 27.2834 25.3947 28.5651C25.436 29.8394 25.4275 31.1154 25.419 32.3913C25.4155 32.9187 25.412 33.4462 25.412 33.9736C25.412 37.5447 25.4123 41.1158 25.4125 44.6869C25.4134 58.0407 25.4143 71.3944 25.4042 84.7482C25.4029 86.4641 25.8271 88.0621 26.6982 89.5019C28.5281 92.5268 31.2194 94.2445 34.8059 94.2592C41.585 94.2868 48.3642 94.2821 55.1433 94.2773C57.8405 94.2754 60.5377 94.2735 63.2348 94.2736L64.8075 94.2737C64.7216 94.4067 64.6469 94.5263 64.5783 94.6362C64.4469 94.8466 64.3378 95.0213 64.2153 95.1861C61.6563 98.627 58.2955 101.07 54.4449 102.857C53.1278 103.468 51.7902 104.035 50.4527 104.602C49.214 105.127 47.9752 105.652 46.7527 106.213C45.6034 106.739 44.5094 107.407 43.4526 108.105C42.7846 108.547 42.7199 109.601 43.1872 110.214C43.6623 110.838 44.5667 111.033 45.2409 110.573C47.0206 109.361 48.9972 108.562 50.9706 107.765C51.5259 107.54 52.0809 107.316 52.6312 107.082C55.7723 105.75 58.8321 104.299 61.5632 102.232C64.3076 100.154 66.5912 97.6643 68.2634 94.6464C68.451 94.3078 68.6777 94.2705 68.9893 94.2714C69.2169 94.2721 69.4444 94.2732 69.672 94.2742C70.5103 94.278 71.3486 94.2819 72.1867 94.2677C75.2902 94.2154 77.7607 92.8843 79.6388 90.4656C81.0224 88.6839 81.5752 86.619 81.5627 84.3718C81.5459 81.3454 81.5495 78.3189 81.5532 75.2924C81.5545 74.1801 81.5558 73.0677 81.5561 71.9554C81.5564 71.1085 81.5673 71.1068 82.3255 70.9862C82.3714 70.9789 82.42 70.9711 82.4715 70.9628C82.5469 70.9505 82.6228 70.9384 82.6989 70.9262C83.4683 70.8035 84.2686 70.6758 84.9353 70.3263C87.1568 69.1619 88.4229 67.2722 88.388 64.7392C88.352 62.1232 87.1129 60.1621 84.7054 59.0062C84.5634 58.938 84.4198 58.8732 84.2762 58.8083C84.2096 58.7782 84.143 58.7482 84.0766 58.7178C87.3854 57.7825 89.5688 55.8738 89.7263 52.3658ZM76.1463 47.3875C76.2103 47.4399 76.2795 47.4966 76.3575 47.5583C73.1269 48.3973 70.9688 50.2612 70.7704 53.6484C70.5811 56.8833 72.2635 59.0599 75.2264 60.1987C75.1069 60.4045 74.9877 60.6091 74.8689 60.8129C74.5355 61.3849 74.2057 61.9506 73.883 62.5204C73.8093 62.6505 73.764 62.7979 73.7193 62.9437C73.7095 62.9755 73.6998 63.0072 73.6898 63.0387C73.6409 63.1933 73.5777 63.3273 73.5 63.4407C73.428 63.7795 73.284 64.6266 73.284 65.3051C73.284 65.9835 73.6833 66.8807 73.883 67.2444C73.9695 67.3254 74.0446 67.4361 74.1185 67.5833C74.8875 69.1146 76.0985 70.191 77.7422 70.7198C78.2675 70.8887 78.4895 71.1317 78.4593 71.699C78.427 72.3069 78.4339 72.9169 78.441 73.5451C78.4441 73.8164 78.4472 74.0911 78.4472 74.3705H28.5771V12.1177C28.6686 12.1113 28.7586 12.1034 28.8474 12.0956C29.0348 12.0792 29.2173 12.0632 29.3998 12.0626C30.7923 12.0581 32.1847 12.0528 33.5772 12.0476C37.6991 12.032 41.8211 12.0165 45.943 12.018C53.2938 12.0206 60.6446 12.0318 67.9954 12.043C71.233 12.048 74.4707 12.0529 77.7084 12.0571C78.4218 12.058 78.4498 12.0709 78.4478 12.7966C78.444 14.2508 78.4371 15.7051 78.4302 17.1593C78.4184 19.6359 78.4066 22.1124 78.4101 24.589C78.4129 26.54 78.436 28.491 78.4591 30.4421C78.4713 31.4724 78.4835 32.5027 78.4927 33.533C78.4932 33.5948 78.4943 33.6569 78.4954 33.7191C78.5007 34.0278 78.5061 34.3391 78.448 34.6366C78.4109 34.827 78.2275 35.0285 78.056 35.1467C77.6456 35.4293 77.2275 35.7007 76.8093 35.972C76.4518 36.204 76.0943 36.436 75.7417 36.6751C72.2663 39.0313 72.2155 44.6903 75.8076 47.1257C75.9186 47.2009 76.0228 47.2863 76.1463 47.3875ZM28.5514 77.6907C28.5599 77.6511 28.5695 77.6068 28.5786 77.5553C28.6603 77.5508 28.7413 77.5453 28.8218 77.5398C28.993 77.528 29.162 77.5164 29.331 77.5164C45.3851 77.5144 61.4392 77.5141 77.4933 77.515C78.4232 77.515 78.4408 77.5245 78.4395 78.4283C78.4385 79.0719 78.4436 79.7158 78.4488 80.3597C78.4618 81.999 78.4749 83.6385 78.3873 85.2724C78.2094 88.5885 75.3581 91.1709 72.0111 91.1745C66.7234 91.18 61.4358 91.1791 56.1482 91.1782C54.0466 91.1779 51.945 91.1775 49.8434 91.1775C48.4318 91.1776 47.0201 91.1779 45.6085 91.1782C42.1089 91.179 38.6094 91.1798 35.1098 91.1762C31.8088 91.1728 29.2035 89.0077 28.596 85.7767C28.5894 85.7416 28.5822 85.7064 28.575 85.6711C28.5497 85.5473 28.5242 85.4229 28.524 85.2988C28.5196 82.8252 28.5207 80.3516 28.5233 77.8779C28.5234 77.8208 28.5357 77.7637 28.5514 77.6907ZM78.3563 8.73351C77.9302 8.94744 29.5903 9.02967 28.5861 8.807C28.8363 6.7198 29.8957 5.15854 31.6555 4.04763C32.723 3.37366 33.9084 3.11545 35.1618 3.11564C40.0558 3.11634 44.9498 3.11636 49.8438 3.11637C57.2028 3.1164 64.5619 3.11642 71.9209 3.11879C75.2215 3.11986 78.0779 5.62089 78.3563 8.73351ZM88.2347 37.8935C88.2868 38.0816 88.339 38.2697 88.401 38.4516C88.2936 39.6458 87.8214 40.5722 86.8688 41.1947C85.0131 42.4073 83.1439 43.6015 81.2465 44.7477C79.9188 45.5496 78.4222 45.3422 77.2745 44.3084C76.2214 43.3599 75.8625 41.8262 76.52 40.5145C76.7966 39.9626 77.2597 39.4294 77.7708 39.0823C79.5076 37.9027 81.2878 36.784 83.0815 35.6912C84.8294 34.6263 86.7288 35.0379 87.7898 36.7267C88.0071 37.0725 88.1209 37.483 88.2347 37.8935ZM77.4042 57.3161C77.3027 57.3308 77.2013 57.3456 77.1009 57.3636C75.6553 57.3461 74.2979 56.2686 73.973 54.8506C73.6074 53.2548 74.2909 51.6715 75.7331 51.1164C76.8825 50.6739 78.059 50.301 79.2353 49.9282C79.6893 49.7843 80.1433 49.6404 80.5958 49.4925C80.8576 49.4069 81.1217 49.3284 81.3859 49.2498C81.7201 49.1505 82.0543 49.0511 82.3836 48.9375C83.9431 48.3995 85.716 49.4217 86.2705 50.583C86.9648 52.0369 86.6479 53.6821 85.3774 54.6949C85.1469 54.8787 84.8761 55.0413 84.5973 55.1308C82.4194 55.8297 80.2364 56.5128 78.051 57.1879C77.8422 57.2525 77.6232 57.2843 77.4042 57.3161ZM83.4466 24.0519C82.8347 24.4377 82.2131 24.8296 81.5793 25.233C81.5716 25.0817 81.5632 24.9479 81.5555 24.8255C81.5409 24.5917 81.5289 24.3997 81.5286 24.2076C81.5273 23.5001 81.5281 22.7926 81.5288 22.0851C81.5303 20.6192 81.5318 19.1534 81.5156 17.6878C81.5103 17.2067 81.6624 16.9184 82.0906 16.6994C82.475 16.5028 82.8379 16.2631 83.2001 16.024C83.2824 15.9697 83.3646 15.9154 83.447 15.8616C85.1602 14.7444 87.2565 15.1724 88.3728 16.8723C89.3166 18.3094 88.9361 20.4967 87.5014 21.4503C86.1807 22.3281 84.8388 23.1741 83.4466 24.0519ZM81.0392 67.8918L81.0391 67.8988C80.8515 67.8988 80.6631 67.9048 80.4747 67.9108C80.0614 67.9239 79.6481 67.937 79.2425 67.887C77.6974 67.6965 76.6505 66.3547 76.5852 64.7525C76.5261 63.3016 77.7866 61.8036 79.2967 61.6741C80.2616 61.5914 81.2356 61.5316 82.2019 61.565C83.9242 61.6245 85.3572 63.1382 85.3091 64.7603C85.2583 66.4738 83.8951 67.8267 82.1478 67.8898C81.8952 67.899 81.6421 67.8965 81.389 67.8941C81.2724 67.8929 81.1558 67.8918 81.0392 67.8918Z" fill="black"/>
<path d="M68.4182 67.0588C70.0401 67.0697 71.6622 67.0766 73.284 67.0574C73.5519 67.0543 73.7343 67.1054 73.883 67.2444C73.6833 66.8807 73.284 65.9835 73.284 65.3051C73.284 64.6266 73.428 63.7795 73.5 63.4407C73.2871 63.7514 72.9661 63.907 72.537 63.9072C71.2626 63.908 69.9881 63.9034 68.7138 63.9104C68.3904 63.9121 68.0629 63.9225 67.7448 63.9746C67.0528 64.0878 66.6022 64.6064 66.5505 65.3051C66.4898 66.1247 66.8326 66.7297 67.5294 66.9455C67.8108 67.0327 68.1208 67.0568 68.4182 67.0588Z" fill="#0DABAB"/>
<path d="M34.2189 63.9087C35.0667 63.9087 35.8035 63.9047 36.5402 63.9098C37.3959 63.9157 38.2533 63.8991 39.1068 63.9485C40.0113 64.0009 40.5946 64.6145 40.6137 65.4458C40.6331 66.2937 40.0192 66.9593 39.1228 67.0561C38.9853 67.0709 38.8455 67.0658 38.7067 67.0658C36.7864 67.0662 34.866 67.0696 32.9457 67.0643C31.7086 67.0609 31.0911 66.4652 31.0871 65.2562C31.0804 63.2013 31.0745 61.1463 31.0971 59.0916C31.1081 58.0934 31.6998 57.549 32.6723 57.5592C33.5817 57.5687 34.1952 58.1485 34.2109 59.0752C34.2332 60.3909 34.2181 61.7073 34.2189 63.0233C34.219 63.273 34.2189 63.5226 34.2189 63.9087Z" fill="#0DABAB"/>
<path d="M34.2185 26.0045C34.2185 27.6298 34.2319 29.1297 34.2142 30.6293C34.2001 31.8274 33.1988 32.5094 32.0641 32.1204C31.4432 31.9075 31.1121 31.4459 31.1057 30.8165C31.0837 28.6689 31.0772 26.5207 31.1042 24.3733C31.1153 23.4913 31.7372 22.9013 32.6151 22.8947C34.7437 22.8788 36.8726 22.88 39.0013 22.8976C39.9482 22.9054 40.497 23.4918 40.5043 24.4279C40.5113 25.3354 39.939 25.9717 39.0105 25.9939C37.692 26.0254 36.3723 26.0036 35.0532 26.0045C34.8046 26.0047 34.5561 26.0045 34.2185 26.0045Z" fill="#0DABAB"/>
<path d="M72.2326 26.0045C70.7779 26.0045 69.4367 26.0247 68.0964 25.9986C66.8268 25.9739 66.1296 24.9621 66.5687 23.8157C66.7752 23.2763 67.1738 22.9143 67.7637 22.9082C69.8242 22.887 71.8853 22.8786 73.9455 22.9067C74.7215 22.9173 75.3465 23.5995 75.3554 24.4329C75.3764 26.3966 75.3838 28.3616 75.3348 30.3245C75.3061 31.4707 74.4944 32.0762 73.435 31.8554C72.6901 31.7001 72.299 31.2914 72.2709 30.5228C72.2313 29.4382 72.2419 28.3518 72.2331 27.2661C72.2299 26.8762 72.2326 26.4862 72.2326 26.0045Z" fill="#0DABAB"/>
<path d="M47.9072 45.6053C47.9072 44.8062 47.3512 44.3293 46.37 44.3293C45.9698 44.3293 45.6986 44.3679 45.5564 44.4065V46.9724C45.7245 47.0104 45.9312 47.0235 46.2146 47.0235C47.2614 47.0235 47.9072 46.495 47.9072 45.6053Z" fill="#EE392A"/>
<path d="M53.9802 44.3551C53.5405 44.3551 53.2569 44.3937 53.0884 44.4324V50.1174C53.2566 50.1567 53.5279 50.1567 53.7735 50.1567C55.5559 50.1691 56.7186 49.1898 56.7186 47.1142C56.7316 45.3087 55.6721 44.3551 53.9802 44.3551Z" fill="#EE392A"/>
<path d="M64.9028 41.0149V37.5768C64.9028 37.5554 64.8994 37.5338 64.8965 37.5121C64.8954 37.3756 64.8519 37.2415 64.7582 37.1352L59.0251 30.5996C59.0234 30.598 59.0217 30.5974 59.0205 30.5956C58.9864 30.5575 58.9465 30.5258 58.9044 30.4984C58.8919 30.49 58.8794 30.483 58.8663 30.4758C58.8298 30.4559 58.7911 30.4394 58.7512 30.4275C58.7404 30.4245 58.7307 30.4201 58.7199 30.4173C58.6766 30.407 58.6317 30.4006 58.5861 30.4006H44.4963C43.8529 30.4006 43.3302 30.9228 43.3302 31.5644V41.0146L44.4963 41.0153V31.5646H58.0031V37.5184C58.0031 37.8399 58.2644 38.1002 58.5861 38.1002H63.7367V41.0153L64.9028 41.0149Z" fill="#0DABAB"/>
<path fill-rule="evenodd" clip-rule="evenodd" d="M65.6168 41.0149H64.9028L63.7367 41.0153H44.4963L43.3302 41.0146H42.6164C41.696 41.0146 40.9497 41.759 40.9497 42.6779V51.3271C40.9497 52.2453 41.696 52.9902 42.6164 52.9902H43.3303H44.4963H63.7367H64.9028H65.6168C66.537 52.9902 67.2834 52.2453 67.2834 51.3271V42.6781C67.2833 41.7594 66.5369 41.0149 65.6168 41.0149ZM58.811 47.049C58.811 48.7124 58.2041 49.8593 57.3631 50.5688C56.4469 51.3293 55.0515 51.6901 53.3468 51.6901C52.3265 51.6901 51.6033 51.6256 51.1118 51.5614V43.0269C51.8351 42.9111 52.7787 42.8466 53.7735 42.8466C55.4261 42.8466 56.4985 43.1433 57.3386 43.7746C58.2425 44.4451 58.811 45.5149 58.811 47.049ZM43.6056 51.6001V43.0269C44.2124 42.9243 45.0654 42.8466 46.2668 42.8466C47.481 42.8466 48.3467 43.0787 48.9278 43.5431C49.4834 43.9811 49.8572 44.7032 49.8572 45.5541C49.8572 46.4053 49.5738 47.1271 49.0566 47.6167C48.3849 48.2485 47.3904 48.5323 46.2274 48.5323C45.9695 48.5323 45.7362 48.5192 45.5561 48.4934V51.6003L43.6056 51.6001ZM65.4263 44.5225H62.0798V46.5078H65.2063V48.1065H62.0798V51.6001H60.1043V42.9111H65.4263L65.4263 44.5225Z" fill="#EE392A"/>
<path d="M43.3303 52.9902V58.9109C43.3303 59.5523 43.853 60.0746 44.4964 60.0746H63.7367C64.3795 60.0746 64.9028 59.5524 64.9028 58.9109V52.9902H63.7367L63.7367 58.5959H44.4963V52.9902H43.3303Z" fill="#0DABAB"/>
</g>
<defs>
<clipPath id="clip0_1_11703">
<rect width="92" height="123" fill="white"/>
</clipPath>
</defs>
</svg>
