<svg width="49" height="25" viewBox="0 0 49 25" fill="none" xmlns="http://www.w3.org/2000/svg">
<path d="M2.27839 17.508C2.05439 17.564 1.83039 17.592 1.60639 17.592C1.21439 17.592 0.915724 17.4613 0.710391 17.2C0.337057 16.7893 0.150391 16.36 0.150391 15.912C0.150391 15.8187 0.169057 15.6787 0.206391 15.492C0.449057 14.6333 0.757057 13.98 1.13039 13.532C1.44772 13.14 1.97972 12.6827 2.72639 12.16C2.85706 12.0853 2.91306 11.964 2.89439 11.796C2.78239 11.068 2.72639 10.3307 2.72639 9.584C2.72639 8.94933 2.75439 8.324 2.81039 7.708C2.92239 6.62533 3.20239 5.59867 3.65039 4.628C4.07972 3.732 4.67706 3.04133 5.44239 2.556C5.83439 2.31333 6.21706 2.192 6.59039 2.192C7.13172 2.15467 7.65439 2.21067 8.15839 2.36C8.32639 2.39733 8.48506 2.51867 8.63439 2.724C8.80239 2.92933 8.88639 3.12533 8.88639 3.312C8.92372 4.00267 8.83039 4.656 8.60639 5.272C8.32639 6.13067 8.02772 6.784 7.71039 7.232L7.03839 8.156L6.87039 8.268H6.64639C6.64639 8.24933 6.65572 8.22133 6.67439 8.184C6.69306 8.14667 6.71172 8.11867 6.73039 8.1L7.17839 7.456C7.47706 7.04533 7.70106 6.70933 7.85039 6.448C8.41039 5.47733 8.66239 4.47867 8.60639 3.452C8.60639 3.13467 8.45706 2.864 8.15839 2.64C8.13972 2.62133 8.10239 2.62133 8.04639 2.64C7.99039 2.65867 7.94372 2.668 7.90639 2.668C7.83172 2.68667 7.73839 2.696 7.62639 2.696C7.53306 2.696 7.45839 2.70533 7.40239 2.724C7.29039 2.76133 7.10372 2.87333 6.84239 3.06C6.37572 3.37733 5.94639 3.788 5.55439 4.292C5.10639 4.87067 4.77972 5.43067 4.57439 5.972C4.42506 6.43867 4.32239 6.868 4.26639 7.26C4.19172 7.63333 4.11706 8.19333 4.04239 8.94C4.02372 9.108 4.01439 9.36 4.01439 9.696V9.752L4.04239 11.18C4.04239 11.3107 4.05172 11.3853 4.07039 11.404C4.10772 11.404 4.18239 11.376 4.29439 11.32C5.02239 10.9653 5.75972 10.7227 6.50639 10.592C7.43972 10.4053 8.13039 10.3213 8.57839 10.34C8.74639 10.34 8.93306 10.3493 9.13839 10.368C9.34372 10.3867 9.50239 10.4053 9.61439 10.424C9.65172 10.424 9.68906 10.4427 9.72639 10.48C9.76372 10.5173 9.79172 10.5453 9.81039 10.564C9.77306 10.5827 9.73572 10.6013 9.69839 10.62C9.66106 10.6387 9.62372 10.648 9.58639 10.648C8.87706 10.648 8.34506 10.6573 7.99039 10.676C7.33706 10.7133 6.41306 10.9187 5.21839 11.292L4.26639 11.6C4.15439 11.6373 4.10772 11.7213 4.12639 11.852C4.16372 12.2627 4.20106 12.8787 4.23839 13.7C4.23839 13.9987 4.19172 14.3253 4.09839 14.68C4.00506 15.0533 3.93972 15.296 3.90239 15.408C3.73439 15.9867 3.50106 16.4907 3.20239 16.92C2.95972 17.2373 2.65172 17.4333 2.27839 17.508ZM0.934391 16.892C1.13972 17.0413 1.33572 17.116 1.52239 17.116C1.80239 17.116 2.04506 16.9573 2.25039 16.64C2.51172 16.2107 2.68906 15.7627 2.78239 15.296C2.89439 14.8293 2.97839 14.26 3.03439 13.588C2.99706 13.14 2.97839 12.8227 2.97839 12.636L2.92239 12.272C2.77306 12.3467 2.67039 12.412 2.61439 12.468C2.12906 12.8413 1.77439 13.14 1.55039 13.364C1.13972 13.7747 0.831724 14.2787 0.626391 14.876C0.495724 15.268 0.430391 15.6133 0.430391 15.912C0.411724 16.2667 0.579724 16.5933 0.934391 16.892ZM10.6298 7.736C10.4618 7.736 10.3312 7.652 10.2378 7.484C10.2192 7.44667 10.1912 7.39067 10.1538 7.316C10.1165 7.22267 10.0978 7.13867 10.0978 7.064C10.1725 6.82133 10.2938 6.65333 10.4618 6.56C10.4992 6.54133 10.5458 6.532 10.6018 6.532C10.6952 6.532 10.7792 6.56933 10.8538 6.644C10.9285 6.7 10.9938 6.76533 11.0498 6.84C11.1245 6.896 11.1618 6.97067 11.1618 7.064C11.1432 7.32533 11.0125 7.53067 10.7698 7.68L10.6298 7.736ZM9.48183 13.42C9.29516 13.42 9.14583 13.3827 9.03383 13.308C8.92183 13.2333 8.80983 13.112 8.69783 12.944C8.58583 12.776 8.52983 12.6173 8.52983 12.468C8.52983 12.356 8.57649 12.1413 8.66983 11.824C8.81916 11.32 9.00583 10.7507 9.22983 10.116C9.26716 10.0413 9.33249 9.864 9.42583 9.584C9.46316 9.49067 9.50983 9.37867 9.56583 9.248C9.62183 9.09867 9.64049 8.97733 9.62183 8.884C9.60316 8.84667 9.57516 8.81867 9.53783 8.8C9.51916 8.76267 9.50983 8.72533 9.50983 8.688C9.50983 8.61333 9.57516 8.576 9.70583 8.576C9.85516 8.576 9.94849 8.59467 9.98583 8.632C10.0978 8.66933 10.1725 8.70667 10.2098 8.744C10.2472 8.76267 10.2938 8.79067 10.3498 8.828C10.4992 8.92133 10.5738 9.052 10.5738 9.22C10.5738 9.29467 10.5458 9.40667 10.4898 9.556C10.4525 9.70533 10.4245 9.836 10.4058 9.948C10.3685 10.116 10.2938 10.3213 10.1818 10.564C10.0885 10.8067 10.0138 11.012 9.95783 11.18L9.53783 12.356C9.46316 12.5987 9.41649 12.7573 9.39783 12.832C9.37916 12.8693 9.36983 12.9067 9.36983 12.944C9.36983 12.9627 9.37916 12.9813 9.39783 13C9.49116 13.056 9.56583 13.0653 9.62183 13.028C9.78983 12.9347 9.95783 12.804 10.1258 12.636L11.6658 11.012L12.1418 10.48C12.1605 10.4613 12.1792 10.4333 12.1978 10.396C12.2352 10.3587 12.2725 10.3587 12.3098 10.396C12.3098 10.4333 12.3098 10.4707 12.3098 10.508C12.3285 10.5267 12.3285 10.5547 12.3098 10.592L11.7218 11.32C11.3485 11.6747 11.0218 12.0107 10.7418 12.328L10.0698 13L9.78983 13.252C9.73383 13.2893 9.67783 13.3173 9.62183 13.336C9.56583 13.3733 9.51916 13.4013 9.48183 13.42ZM8.46617 24.816C8.24217 24.8533 8.02751 24.816 7.82217 24.704C7.59817 24.592 7.44884 24.424 7.37417 24.2L7.29017 23.696C7.29017 23.3413 7.33684 23.0053 7.43017 22.688C7.5235 22.3893 7.67284 21.9693 7.87817 21.428L8.27017 20.42C8.28884 20.364 8.31684 20.28 8.35417 20.168C8.3915 20.0747 8.4475 19.9627 8.52217 19.832C8.78351 19.3653 9.08217 18.8707 9.41817 18.348C10.0715 17.3213 10.7062 16.4813 11.3222 15.828C11.9195 15.1933 12.4422 14.7267 12.8902 14.428C13.1515 14.2413 13.3475 14.1107 13.4782 14.036L13.5342 13.924L14.8782 10.984V10.9C14.8782 10.9373 14.8595 10.956 14.8222 10.956C14.1875 11.5907 13.5808 12.0667 13.0022 12.384C12.7782 12.5333 12.5262 12.636 12.2462 12.692L12.1062 12.72C11.9755 12.72 11.8542 12.6827 11.7422 12.608C11.6302 12.5147 11.5555 12.412 11.5182 12.3C11.4062 12.02 11.3502 11.7587 11.3502 11.516C11.3502 11.1987 11.4528 10.9093 11.6582 10.648C11.6955 10.592 11.7795 10.4707 11.9102 10.284C12.0595 10.0787 12.2275 9.92 12.4142 9.808C12.5635 9.696 12.6755 9.63067 12.7502 9.612C12.8995 9.57467 13.0115 9.556 13.0862 9.556C13.2915 9.556 13.4782 9.612 13.6462 9.724C13.9448 9.92933 14.0848 10.2 14.0662 10.536C14.0662 10.6293 14.0195 10.7413 13.9262 10.872C13.9075 10.9093 13.8702 10.928 13.8142 10.928C13.7582 10.928 13.7208 10.9 13.7022 10.844L13.6462 10.452L13.6742 10.34C13.6742 10.116 13.5715 10.0507 13.3662 10.144C13.1608 10.2187 12.9275 10.424 12.6662 10.76C12.3488 11.1147 12.1155 11.5907 11.9662 12.188L12.0222 12.412C12.0595 12.468 12.1342 12.4773 12.2462 12.44C12.5448 12.3467 12.9368 12.132 13.4222 11.796C13.9448 11.4227 14.3182 11.124 14.5422 10.9C14.7662 10.676 14.9902 10.424 15.2142 10.144C15.5502 9.752 15.7275 9.54667 15.7462 9.528C15.8208 9.45333 15.8675 9.43467 15.8862 9.472C16.1848 9.62133 16.3808 9.77067 16.4742 9.92C16.5488 10.088 16.5488 10.2373 16.4742 10.368C16.3248 10.592 16.1195 10.928 15.8582 11.376C15.7648 11.544 15.6435 11.796 15.4942 12.132C15.4755 12.1507 15.4662 12.1693 15.4662 12.188C15.4848 12.188 15.4848 12.1973 15.4662 12.216L15.5502 12.188C15.7928 12.0387 16.3808 11.768 17.3142 11.376C17.7808 11.1893 18.2195 10.9933 18.6302 10.788C18.6488 10.7693 18.7048 10.76 18.7982 10.76C18.7608 10.8347 18.7235 10.8813 18.6862 10.9C18.5368 11.012 18.0142 11.2547 17.1182 11.628C16.2968 12.0013 15.8115 12.2347 15.6622 12.328C15.4942 12.4213 15.3542 12.552 15.2422 12.72C15.1488 12.8693 15.0462 13.084 14.9342 13.364L13.7582 15.94C13.6275 16.2387 13.5062 16.5 13.3942 16.724L13.0302 17.508L12.7502 18.208C12.6568 18.4693 12.4982 18.8613 12.2742 19.384L11.4902 21.036C11.4528 21.1107 11.3502 21.3253 11.1822 21.68L10.8742 22.38C10.7622 22.604 10.6688 22.772 10.5942 22.884C10.3888 23.3507 10.1742 23.696 9.95017 23.92C9.48351 24.3867 8.98884 24.6853 8.46617 24.816ZM8.35417 24.508C8.3915 24.4893 8.49417 24.4427 8.66217 24.368C8.81151 24.312 8.93284 24.2093 9.02617 24.06L9.19417 23.696C9.53017 23.0987 9.77284 22.6413 9.92217 22.324C10.0342 22.1187 10.1835 21.792 10.3702 21.344L11.0982 19.832C11.3222 19.4027 11.5648 18.8333 11.8262 18.124C11.9755 17.7133 12.0968 17.4053 12.1902 17.2L13.0022 15.156L13.3382 14.372C13.3568 14.3533 13.3662 14.3253 13.3662 14.288C13.3102 14.288 13.2728 14.2973 13.2542 14.316L12.8902 14.624C12.4982 14.9973 12.1155 15.38 11.7422 15.772C11.4435 16.0707 11.2288 16.304 11.0982 16.472L10.5942 17.06C10.5195 17.1347 10.4262 17.2467 10.3142 17.396C10.1835 17.5453 10.0808 17.6853 10.0062 17.816L8.77417 19.86C8.56884 20.196 8.41951 20.4947 8.32617 20.756L8.04617 21.456C7.95284 21.736 7.88751 21.9133 7.85017 21.988C7.64484 22.492 7.53284 23.024 7.51417 23.584L7.59817 24.116C7.59817 24.1907 7.61684 24.2467 7.65417 24.284C7.87817 24.508 8.1115 24.5827 8.35417 24.508ZM21.9447 14.064L21.7207 14.008C21.478 13.8587 21.3007 13.7093 21.1887 13.56C21.0953 13.4293 21.0487 13.252 21.0487 13.028C21.0487 12.692 21.114 12.3187 21.2447 11.908C21.3753 11.4973 21.4593 11.2453 21.4967 11.152C21.6273 10.7787 21.842 10.2187 22.1407 9.472V9.36C22.1033 9.39733 22.0753 9.416 22.0567 9.416L20.6847 10.844L18.9207 12.888C18.7527 13.0747 18.5753 13.14 18.3887 13.084C18.1273 12.972 17.978 12.776 17.9407 12.496C17.922 12.4213 17.9127 12.2907 17.9127 12.104C17.894 11.824 17.9313 11.5627 18.0247 11.32C18.0993 11.0773 18.2113 10.788 18.3607 10.452L18.8647 9.388C18.8647 9.35067 18.8927 9.332 18.9487 9.332C19.2847 9.388 19.5553 9.51867 19.7607 9.724C19.854 9.79867 19.9007 9.892 19.9007 10.004C19.9007 10.0973 19.882 10.172 19.8447 10.228C19.4153 11.1613 19.154 11.7307 19.0607 11.936V12.188C19.0793 12.1693 19.1073 12.16 19.1447 12.16C19.182 12.1413 19.21 12.1133 19.2287 12.076C19.3967 11.908 19.6487 11.6373 19.9847 11.264L22.0847 9.024C22.1033 8.98667 22.1687 8.90267 22.2807 8.772C22.4113 8.64133 22.4767 8.492 22.4767 8.324L22.5327 8.296C22.7753 8.38933 22.9713 8.48267 23.1207 8.576C23.27 8.65067 23.4007 8.76267 23.5127 8.912C23.5313 8.94933 23.5407 9.01467 23.5407 9.108C23.5407 9.42533 23.4193 9.82667 23.1767 10.312C22.8407 10.9467 22.598 11.432 22.4487 11.768C22.262 12.1787 22.1407 12.4867 22.0847 12.692C22.066 12.8227 22.0567 12.9627 22.0567 13.112C22.0567 13.28 22.0567 13.4013 22.0567 13.476C22.0567 13.4947 22.0847 13.5227 22.1407 13.56C22.1967 13.616 22.2433 13.644 22.2807 13.644C22.5047 13.6067 22.654 13.5507 22.7287 13.476C23.4567 12.9533 24.0633 12.3653 24.5487 11.712C24.642 11.5627 24.7633 11.404 24.9127 11.236C25.0807 11.0493 25.202 10.9093 25.2767 10.816C25.314 10.7787 25.3513 10.7787 25.3887 10.816L25.4727 10.956L25.4167 11.012C25.3607 11.0867 25.1647 11.348 24.8287 11.796C24.4927 12.244 24.1287 12.636 23.7367 12.972C23.6993 13.0093 23.5593 13.1307 23.3167 13.336C23.0927 13.56 22.85 13.7373 22.5887 13.868C22.4953 13.9053 22.2993 13.9707 22.0007 14.064H21.9447ZM29.1205 13.336C28.7472 13.392 28.4299 13.2707 28.1685 12.972C27.9259 12.6733 27.8045 12.3373 27.8045 11.964C27.8045 11.8333 27.8139 11.7307 27.8325 11.656C27.9259 11.208 28.1592 10.5733 28.5325 9.752L28.5605 9.64L28.4485 9.724L27.6085 10.676C27.5899 10.6947 27.4405 10.872 27.1605 11.208C27.1419 11.2267 26.8525 11.544 26.2925 12.16C26.0685 12.4213 25.7885 12.552 25.4525 12.552C25.2845 12.552 25.1259 12.5053 24.9765 12.412C24.5845 12.132 24.3885 11.7773 24.3885 11.348C24.3885 11.1427 24.4259 10.9653 24.5005 10.816C24.9112 9.92 25.5645 9.36 26.4605 9.136C26.6472 9.09867 26.7872 9.08 26.8805 9.08C27.0112 9.08 27.1325 9.108 27.2445 9.164C27.3192 9.20133 27.4125 9.23867 27.5245 9.276C27.6552 9.31333 27.7579 9.35067 27.8325 9.388C27.9819 9.46267 28.0192 9.51867 27.9445 9.556H27.6365C27.4312 9.556 27.1979 9.62133 26.9365 9.752C26.2272 10.1253 25.6765 10.76 25.2845 11.656C25.1912 11.824 25.1912 11.964 25.2845 12.076C25.4152 12.188 25.5739 12.216 25.7605 12.16C25.9472 12.0853 26.0685 12.0107 26.1245 11.936L27.8045 10.116L29.1485 8.576C29.3165 8.352 29.4099 8.23067 29.4285 8.212C29.4659 8.13733 29.5032 8.1 29.5405 8.1C29.5779 8.08133 29.6525 8.072 29.7645 8.072C29.9139 8.072 30.0632 8.10933 30.2125 8.184C30.3619 8.24 30.4739 8.31467 30.5485 8.408C30.6232 8.50133 30.6605 8.604 30.6605 8.716C30.6605 8.80933 30.6325 8.90267 30.5765 8.996L29.4285 11.012C29.1485 11.5347 28.9245 12.048 28.7565 12.552C28.7192 12.664 28.7005 12.7573 28.7005 12.832V12.916C28.7005 13.1027 28.8032 13.1773 29.0085 13.14C29.4192 13.1027 29.7739 12.9813 30.0725 12.776C30.4085 12.552 30.8939 12.1787 31.5285 11.656C31.6219 11.5813 31.7059 11.488 31.7805 11.376C31.8739 11.2453 31.9392 11.152 31.9765 11.096L32.1725 11.012C32.2099 11.012 32.2192 11.04 32.2005 11.096C32.2005 11.152 32.1819 11.1987 32.1445 11.236C31.9205 11.628 31.6685 11.9173 31.3885 12.104C31.1085 12.328 30.6699 12.6453 30.0725 13.056C29.8485 13.2053 29.5312 13.2987 29.1205 13.336ZM30.4438 15.52C30.3131 15.52 30.2011 15.4453 30.1078 15.296C30.0891 15.2773 30.0798 15.2493 30.0798 15.212L30.4438 14.12C30.4998 13.952 30.5744 13.7747 30.6678 13.588C30.7424 13.42 30.8171 13.2427 30.8918 13.056C30.9104 12.9253 30.9758 12.7667 31.0878 12.58C31.1624 12.356 31.2278 12.16 31.2838 11.992C31.3398 11.8053 31.3864 11.6467 31.4238 11.516C31.4424 11.4413 31.4704 11.3853 31.5078 11.348C31.5264 11.3107 31.5451 11.2733 31.5638 11.236L31.6198 11.04C31.6571 10.928 31.7691 10.6853 31.9558 10.312C32.1424 9.752 32.2358 9.472 32.2358 9.472L32.5718 8.576C32.6464 8.408 32.7118 8.23067 32.7678 8.044C32.8424 7.85733 32.9358 7.652 33.0478 7.428C33.4398 6.476 33.7104 5.84133 33.8598 5.524C33.8784 5.39333 33.9158 5.25333 33.9718 5.104C34.0464 4.936 34.1024 4.80533 34.1398 4.712C34.1584 4.67467 34.1678 4.63733 34.1678 4.6L34.2798 4.404C34.1678 4.42267 33.9998 4.45067 33.7758 4.488C33.5704 4.50667 33.3838 4.544 33.2158 4.6C33.1224 4.6 33.0478 4.60933 32.9918 4.628C32.9358 4.64667 32.8798 4.66533 32.8238 4.684C32.7678 4.684 32.7304 4.69333 32.7118 4.712H32.5718C32.4411 4.712 32.3384 4.72133 32.2638 4.74L31.7318 4.796C31.6384 4.796 31.5358 4.75867 31.4238 4.684C31.3118 4.572 31.2558 4.46 31.2558 4.348C31.2558 4.25467 31.2838 4.152 31.3398 4.04C31.3398 4.00267 31.3584 3.984 31.3958 3.984L31.7038 4.012C31.8718 4.012 32.0491 3.99333 32.2358 3.956C32.3104 3.956 32.3944 3.96533 32.4878 3.984C32.5998 3.984 32.7398 3.97467 32.9078 3.956C33.1318 3.956 33.3371 3.928 33.5238 3.872C33.8038 3.872 34.0278 3.86267 34.1958 3.844H34.5598C34.6344 3.69467 34.6811 3.52667 34.6998 3.34C34.7371 3.13467 34.7651 3.004 34.7838 2.948C34.8211 2.612 34.8864 2.32267 34.9798 2.08C35.0358 1.968 35.0638 1.81867 35.0638 1.632C35.0824 1.44533 35.1104 1.30533 35.1478 1.212C35.1851 1.06267 35.2224 0.913333 35.2598 0.764C35.3158 0.614666 35.3718 0.446666 35.4278 0.26C35.4464 0.26 35.4838 0.26 35.5398 0.26C35.5958 0.241333 35.6331 0.241333 35.6518 0.26C35.7264 0.297333 35.8758 0.353333 36.0998 0.427999C36.3424 0.502666 36.4918 0.595999 36.5478 0.708C36.5664 0.726666 36.6224 0.773333 36.7158 0.848C36.8091 0.903999 36.8464 0.950666 36.8278 0.987999C36.6784 1.51067 36.5758 1.84667 36.5198 1.996C36.2211 2.74267 35.9784 3.312 35.7918 3.704V3.816L38.5638 3.76C38.6944 3.76 38.8251 3.75067 38.9558 3.732C39.1051 3.69467 39.2451 3.676 39.3758 3.676C39.5064 3.676 39.6464 3.66667 39.7958 3.648C39.9638 3.61067 40.0944 3.60133 40.1878 3.62C40.3558 3.58267 40.5611 3.55467 40.8038 3.536C41.0464 3.49867 41.2331 3.47067 41.3638 3.452C41.4758 3.43333 41.5784 3.43333 41.6718 3.452C41.7651 3.452 41.8491 3.452 41.9238 3.452L41.9798 3.508L41.9238 3.844C41.9238 3.9 41.8584 3.94667 41.7278 3.984C41.5038 3.984 41.3451 3.99333 41.2518 4.012C40.5051 4.08667 39.9078 4.16133 39.4598 4.236C39.3851 4.236 39.2824 4.24533 39.1518 4.264C39.0398 4.28267 38.9371 4.30133 38.8438 4.32C38.5638 4.32 38.3771 4.32933 38.2838 4.348L37.2758 4.264L35.5678 4.32L35.4558 4.544C35.1944 4.91733 34.9891 5.34667 34.8398 5.832C34.8024 5.92533 34.5971 6.42 34.2238 7.316C34.0371 7.72667 33.8318 8.25867 33.6078 8.912L33.2718 9.696L32.8518 10.676C32.4411 11.74 32.2078 12.3467 32.1518 12.496C31.9838 12.8507 31.8531 13.1773 31.7598 13.476C31.6664 13.6627 31.5731 13.896 31.4798 14.176L31.2558 14.736C31.1811 14.9973 31.0971 15.2027 31.0038 15.352C30.9664 15.464 30.8264 15.5107 30.5838 15.492L30.4438 15.52ZM34.8752 13.392C34.8379 13.4107 34.7819 13.42 34.7072 13.42C34.5952 13.42 34.4739 13.3733 34.3432 13.28C34.2312 13.1867 34.1565 13.1307 34.1192 13.112C33.7085 12.776 33.5032 12.2907 33.5032 11.656C33.5779 11.0027 33.8019 10.3027 34.1752 9.556C34.3619 9.23867 34.5392 8.94933 34.7072 8.688C34.7259 8.65067 34.7539 8.62267 34.7912 8.604C34.8472 8.58533 34.8939 8.58533 34.9312 8.604C35.1365 8.67867 35.3512 8.78133 35.5752 8.912C35.7059 8.968 35.7712 9.06133 35.7712 9.192C35.7712 9.26667 35.7432 9.36 35.6872 9.472C35.2019 10.1627 34.8192 11.068 34.5392 12.188C34.5205 12.2627 34.5112 12.384 34.5112 12.552C34.5112 12.7387 34.5299 12.8787 34.5672 12.972C34.6045 13.0653 34.6419 13.0933 34.6792 13.056C34.7352 13.0187 34.7725 13 34.7912 13C34.8659 12.9253 34.9405 12.8507 35.0152 12.776C35.1085 12.7013 35.2019 12.6173 35.2952 12.524C35.6685 12.076 35.9392 11.74 36.1072 11.516C36.1819 11.3853 36.2472 11.2733 36.3032 11.18C36.3592 11.068 36.4059 10.9747 36.4432 10.9C36.5925 10.6947 36.7232 10.5173 36.8352 10.368C36.9659 10.2 37.0685 10.06 37.1432 9.948C37.1992 9.87333 37.2645 9.836 37.3392 9.836C37.4139 9.836 37.4605 9.836 37.4792 9.836C37.8525 9.87333 38.1045 9.99467 38.2352 10.2C38.2912 10.256 38.2912 10.34 38.2352 10.452C37.7872 11.1613 37.4605 11.6933 37.2552 12.048C37.2179 12.0853 37.1619 12.2253 37.0872 12.468C37.0872 12.524 37.1152 12.58 37.1712 12.636C37.1899 12.6547 37.2459 12.6453 37.3392 12.608C37.4325 12.5707 37.5352 12.524 37.6472 12.468C37.7592 12.412 37.8712 12.356 37.9832 12.3C38.1325 12.2253 38.2445 12.16 38.3192 12.104L39.4112 11.432C39.8965 11.0587 40.2605 10.788 40.5032 10.62C40.5405 10.5827 40.5779 10.564 40.6152 10.564C40.6525 10.5453 40.6992 10.536 40.7552 10.536C40.8112 10.5173 40.8392 10.5267 40.8392 10.564C40.8392 10.62 40.8205 10.6853 40.7832 10.76C40.7832 10.76 40.7272 10.816 40.6152 10.928L38.3192 12.524L37.6472 13C37.5352 13.0933 37.3579 13.14 37.1152 13.14C36.8539 13.14 36.6579 13.0747 36.5272 12.944C36.3592 12.776 36.2192 12.608 36.1072 12.44C36.0699 12.3653 36.0232 12.356 35.9672 12.412C35.7059 12.7107 35.5005 12.9253 35.3512 13.056C35.2205 13.1867 35.0619 13.2987 34.8752 13.392ZM40.1477 13.672C40.1291 13.5413 40.1104 13.392 40.0917 13.224C40.0544 13.0747 40.0357 12.9253 40.0357 12.776C40.0357 12.608 40.0451 12.4773 40.0637 12.384C40.1384 12.104 40.1851 11.9173 40.2037 11.824C40.4651 10.816 40.6797 10.0693 40.8477 9.584C40.9411 9.22933 41.1651 8.64133 41.5197 7.82L41.6037 7.68C41.6597 7.49333 41.7157 7.4 41.7717 7.4C41.8091 7.4 41.8464 7.41867 41.8837 7.456C41.9211 7.47467 41.9584 7.49333 41.9957 7.512C42.1264 7.58667 42.2104 7.66133 42.2477 7.736C42.2851 7.81067 42.3131 7.904 42.3317 8.016C42.3691 8.128 42.3971 8.212 42.4157 8.268L42.4437 8.436C42.4437 8.548 42.4157 8.66 42.3597 8.772C42.1357 9.23867 41.9117 9.78 41.6877 10.396C41.6877 10.396 41.6691 10.4147 41.6317 10.452L41.6877 10.424L41.8557 10.228C41.8371 10.2467 41.9677 10.088 42.2477 9.752L42.8637 9.024C43.0131 8.87467 43.1624 8.83733 43.3117 8.912C43.5171 9.024 43.6197 9.136 43.6197 9.248C43.6197 9.26667 43.5824 9.36933 43.5077 9.556C43.4517 9.68667 43.3491 9.88267 43.1997 10.144C43.1997 10.1627 43.1531 10.1907 43.0597 10.228C43.0597 10.2093 43.0504 10.1907 43.0317 10.172C43.0317 10.1347 43.0411 10.0973 43.0597 10.06C43.0597 9.98533 43.0784 9.836 43.1157 9.612L43.0877 9.556C43.0504 9.556 43.0317 9.56533 43.0317 9.584C42.4904 10.088 42.1357 10.5547 41.9677 10.984C41.9117 11.1333 41.8464 11.2733 41.7717 11.404C41.7157 11.516 41.6597 11.628 41.6037 11.74C41.4731 11.964 41.3611 12.188 41.2677 12.412C41.1931 12.5987 41.0904 12.916 40.9597 13.364C40.9224 13.4947 40.8571 13.6067 40.7637 13.7C40.6704 13.7933 40.5677 13.84 40.4557 13.84C40.3437 13.84 40.2411 13.784 40.1477 13.672ZM45.6891 13.588C45.5398 13.6253 45.4278 13.644 45.3531 13.644C45.0731 13.644 44.7558 13.532 44.4011 13.308C44.1398 13.14 43.9438 12.9253 43.8131 12.664C43.6638 12.384 43.5891 12.0853 43.5891 11.768C43.5891 11.5627 43.6358 11.3387 43.7291 11.096C44.2144 9.82667 44.9984 8.94933 46.0811 8.464C46.1931 8.408 46.3984 8.36133 46.6971 8.324C46.9958 8.34267 47.2478 8.45467 47.4531 8.66C47.6771 8.86533 47.7891 9.09867 47.7891 9.36C47.7891 9.528 47.7424 9.668 47.6491 9.78C47.5744 9.892 47.4344 10.0413 47.2291 10.228C46.7624 10.5827 46.1278 10.788 45.3251 10.844C45.2691 10.844 45.1944 10.8907 45.1011 10.984C44.7278 11.544 44.5504 12.0947 44.5691 12.636C44.5691 13.1213 44.7744 13.364 45.1851 13.364C45.2971 13.364 45.3904 13.3547 45.4651 13.336C45.6331 13.3173 45.8198 13.252 46.0251 13.14C46.2304 13.0467 46.3798 12.9813 46.4731 12.944C47.2198 12.5333 47.8918 12.048 48.4891 11.488C48.5824 11.4133 48.6384 11.3573 48.6571 11.32C48.6758 11.2827 48.7224 11.2267 48.7971 11.152C48.8344 11.1147 48.8811 11.096 48.9371 11.096L48.9651 11.264C48.9651 11.32 48.9371 11.3667 48.8811 11.404C48.4144 11.8893 48.0691 12.2253 47.8451 12.412C47.6398 12.5987 47.3318 12.804 46.9211 13.028C46.5104 13.2707 46.0998 13.4573 45.6891 13.588ZM45.8291 10.536L45.9411 10.508C46.2771 10.4707 46.5664 10.3773 46.8091 10.228C47.0518 10.06 47.2758 9.836 47.4811 9.556C47.5744 9.42533 47.5931 9.29467 47.5371 9.164C47.4811 9.08933 47.4158 9.052 47.3411 9.052C47.2851 9.03333 47.2198 9.03333 47.1451 9.052C46.9024 9.108 46.6784 9.23867 46.4731 9.444L46.1931 9.696L45.4931 10.452L45.4371 10.536C45.4558 10.5547 45.5118 10.564 45.6051 10.564L45.8291 10.536Z" fill="black"/>
</svg>
