<svg width="50" height="28" viewBox="0 0 50 28" fill="none" xmlns="http://www.w3.org/2000/svg">
<path d="M8.13141 27.9386C6.42949 27.9386 4.93768 27.7134 3.65598 27.2632C2.37429 26.8333 1.38675 26.1988 0.693376 25.3596C0.483262 25.1345 0.315171 24.8377 0.189103 24.4693C0.0630342 24.0804 0 23.6915 0 23.3026C0 22.8114 0.105057 22.4327 0.315171 22.1667C0.525285 21.9006 0.693376 21.7164 0.819444 21.614C0.945513 21.4912 1.02956 21.4094 1.07158 21.3684C1.1136 21.348 1.28169 21.1944 1.57585 20.9079C1.89103 20.5395 2.48985 20.0994 3.37233 19.5877C4.25481 19.0556 4.99021 18.6769 5.57852 18.4518C5.95673 18.288 6.24038 18.1754 6.42949 18.114L6.77617 17.9912L6.83921 17.9605L6.96528 18.114L6.93376 18.1447C6.80769 18.3085 6.58707 18.4518 6.2719 18.5746C6.22988 18.595 6.16684 18.6257 6.0828 18.6667C6.01976 18.6871 5.94622 18.7178 5.86218 18.7588C5.92521 18.7588 5.98825 18.7895 6.05128 18.8509L6.0828 18.943L6.01976 18.9737C5.7256 19.1988 5.29487 19.4751 4.72756 19.8026C3.46688 20.6009 2.47934 21.307 1.76496 21.9211C1.05057 22.5146 0.693376 23.1184 0.693376 23.7325C0.693376 24.2442 0.998041 24.7354 1.60737 25.2061C2.17468 25.6155 2.7735 25.9532 3.40385 26.2193C4.0552 26.5058 4.56998 26.7003 4.94818 26.8026L5.64156 26.8947C6.33493 26.9971 6.72365 27.0789 6.80769 27.1403H6.87073H6.96528H7.02831L7.12286 27.1096H7.50107C7.64815 27.1096 7.80573 27.1301 7.97382 27.1711H8.06837L8.4781 27.1096C8.56214 27.0892 8.65669 27.0789 8.76175 27.0789H8.82478L9.45513 27.1096C10.2746 27.1096 11.2516 26.9561 12.3862 26.6491C13.5418 26.3421 14.6554 25.943 15.727 25.4518C17.2609 24.7558 18.3535 24.0497 19.0048 23.3333C19.6772 22.5965 20.0974 21.9313 20.2655 21.3377C20.3285 21.0921 20.36 20.8567 20.36 20.6316C20.36 20.0175 20.1394 19.4035 19.6982 18.7895C19.0048 17.8479 17.7861 16.9269 16.0422 16.0263C14.9706 15.4942 13.899 14.9825 12.8275 14.4912C11.6718 13.9591 10.7999 13.5395 10.2115 13.2325C9.64423 12.9254 9.19248 12.598 8.8563 12.25C8.33102 11.6769 8.02635 11.0833 7.94231 10.4693L7.91079 10.0702C7.91079 9.55848 8.01585 9.05702 8.22596 8.56579C8.60417 7.64474 9.29754 6.69298 10.3061 5.71053C11.3356 4.72807 12.5963 3.79678 14.0881 2.91667C15.4959 2.09795 16.9352 1.43275 18.406 0.921052C19.8978 0.388887 21.253 0.0818703 22.4717 0H22.9129C24.2366 0 25.0876 0.41959 25.4658 1.25877C25.5919 1.52485 25.6549 1.82164 25.6549 2.14912C25.6549 2.59941 25.5393 3.07017 25.3082 3.5614C25.0771 4.05263 24.7619 4.52339 24.3627 4.97368C23.5223 5.89474 22.6083 6.72368 21.6207 7.46053C20.6332 8.19737 19.7192 8.56579 18.8787 8.56579C18.2274 8.56579 17.6811 8.28947 17.2398 7.73684C17.1348 7.5731 17.0613 7.24561 17.0192 6.75438V6.63158V6.57017C17.0192 6.40643 17.1138 6.22222 17.3029 6.01754C17.7441 5.48538 18.5846 4.89181 19.8242 4.23684C21.0639 3.58187 21.8834 3.25439 22.2826 3.25439H22.4086L22.3771 3.37719C22.3561 3.39766 22.3456 3.42836 22.3456 3.4693C22.2616 3.67397 22.167 3.81725 22.062 3.89912C21.8308 4.1038 21.2845 4.45175 20.4231 4.94298C19.6457 5.37281 19.0468 5.75146 18.6266 6.07895C18.2064 6.38596 17.9542 6.72368 17.8702 7.0921C18.1223 7.19444 18.385 7.24561 18.6581 7.24561C18.9733 7.24561 19.3935 7.19444 19.9188 7.0921C20.0869 7.05117 20.2025 7.0307 20.2655 7.0307C20.5176 6.90789 20.8958 6.70322 21.4001 6.41667C21.9254 6.10965 22.209 5.92544 22.2511 5.86403L22.7869 5.3728C23.3752 4.86111 23.8689 4.33918 24.2682 3.80702C24.6674 3.27485 24.8985 2.66082 24.9615 1.96491C24.9615 1.65789 24.8775 1.42251 24.7094 1.25877C24.3942 0.910818 23.8059 0.736842 22.9444 0.736842C22.188 0.736842 21.274 0.880116 20.2025 1.16667C19.1519 1.45322 18.0698 1.8421 16.9562 2.33333C15.6955 2.90643 14.4979 3.58187 13.3632 4.35965C12.2496 5.11696 11.2726 5.92544 10.4322 6.78509C9.17147 8.03362 8.54113 9.12865 8.54113 10.0702C8.54113 10.5 8.6777 10.8991 8.95085 11.2675C9.224 11.6155 9.64423 11.9737 10.2115 12.3421C10.6948 12.6696 11.3041 12.9971 12.0395 13.3246C12.7749 13.6316 13.2267 13.8158 13.3948 13.8772C15.3488 14.6959 16.8196 15.443 17.8072 16.1184C19.2569 17.1623 20.234 18.1959 20.7382 19.2193C21.0324 19.8538 21.1795 20.4474 21.1795 21C21.1795 21.3684 21.1165 21.7368 20.9904 22.1053C20.7172 22.9035 20.1604 23.6711 19.32 24.4079C18.5005 25.1243 17.45 25.7588 16.1683 26.3114C14.9706 26.8231 13.6679 27.2222 12.2601 27.5088C10.8734 27.7953 9.49715 27.9386 8.13141 27.9386Z" fill="black"/>
<path d="M23.3709 8.22807C23.2869 8.39181 23.1713 8.47368 23.0242 8.47368C22.9612 8.47368 22.9087 8.44298 22.8666 8.38158C22.8246 8.32017 22.8141 8.2383 22.8351 8.13596C22.8561 7.99269 22.9087 7.72661 22.9927 7.33772C22.9927 7.27631 23.0137 7.18421 23.0557 7.0614C23.0978 6.91813 23.1818 6.82602 23.3079 6.78509C23.3499 6.76462 23.4024 6.75438 23.4655 6.75438C23.5495 6.75438 23.623 6.77485 23.6861 6.81579C23.7491 6.85672 23.8016 6.88743 23.8437 6.90789C23.9277 6.98976 23.9697 7.07164 23.9697 7.15351C23.9697 7.25585 23.9172 7.38889 23.8121 7.55263L23.3709 8.22807ZM21.2277 16.4868C21.1437 16.5687 21.0491 16.6096 20.9441 16.6096C20.776 16.6096 20.6289 16.5175 20.5029 16.3333C20.3768 16.1287 20.3137 15.8626 20.3137 15.5351C20.3137 15.1053 20.4503 14.481 20.7235 13.6623C20.9966 12.8231 21.2698 12.0556 21.5429 11.3596C21.8371 10.6433 22.0367 10.1827 22.1417 9.97807C22.2468 9.79386 22.3834 9.70175 22.5515 9.70175C22.6985 9.70175 22.8141 9.75292 22.8981 9.85526C22.9822 9.9576 22.9927 10.1009 22.9297 10.2851L22.1102 12.4342C21.774 13.3143 21.5324 13.9591 21.3853 14.3684C21.2593 14.7778 21.1857 15.2281 21.1647 15.7193V15.7807C21.1647 15.8626 21.1857 15.9547 21.2277 16.057C21.2908 16.1594 21.3223 16.2412 21.3223 16.3026C21.3433 16.364 21.3118 16.4254 21.2277 16.4868Z" fill="black"/>
<path d="M18.3132 27.1096C18.3132 25.943 18.975 24.4284 20.2987 22.5658C21.1602 21.3582 22.0217 20.3143 22.8831 19.4342C23.3454 18.943 23.6605 18.5234 23.8286 18.1754C24.0177 17.8275 24.2174 17.1725 24.4275 16.2105H24.3644L24.0493 16.6403C23.7761 17.0088 23.503 17.193 23.2298 17.193C23.0197 17.193 22.8516 17.0804 22.7255 16.8553C22.5995 16.6096 22.5364 16.2924 22.5364 15.9035C22.5364 15.1871 22.7466 14.3377 23.1668 13.3553C23.608 12.3728 24.2909 11.3596 25.2154 10.3158C25.3625 10.1316 25.5516 9.9883 25.7827 9.88596C26.0348 9.76316 26.2765 9.70175 26.5076 9.70175C26.6547 9.70175 26.7807 9.73246 26.8858 9.79386C27.0329 9.85526 27.1379 9.97807 27.201 10.1623C27.285 10.326 27.306 10.4898 27.264 10.6535C27.201 10.8377 27.0854 10.9298 26.9173 10.9298C26.7912 10.9298 26.7282 10.8684 26.7282 10.7456C26.7282 10.5614 26.7072 10.4181 26.6652 10.3158C26.6232 10.193 26.5286 10.1009 26.3815 10.0395C25.8773 10.4079 25.373 10.9708 24.8687 11.7281C24.3644 12.4854 23.9442 13.2734 23.608 14.0921C23.2929 14.9108 23.1353 15.5965 23.1353 16.1491C23.1353 16.2924 23.1563 16.4459 23.1983 16.6096L23.3874 16.4561C24.1438 15.4123 24.6586 14.6447 24.9317 14.1535C25.2259 13.6418 25.5621 12.9459 25.9403 12.0658L26.3185 11.1754C26.4656 11.155 26.6232 11.1447 26.7912 11.1447C26.9383 11.1447 27.0014 11.1959 26.9804 11.2982C26.9804 11.4006 26.8858 11.6667 26.6967 12.0965C26.0033 13.7749 25.4045 15.4942 24.9002 17.2544L24.9317 17.3772C25.8142 16.6813 26.5391 16.1184 27.1064 15.6886C27.6947 15.2588 28.1675 14.9518 28.5247 14.7675L28.5562 14.7982C28.3881 14.9415 28.241 15.0643 28.115 15.1667C27.9889 15.2485 27.8838 15.3304 27.7998 15.4123C27.7368 15.4942 27.6947 15.5863 27.6737 15.6886C27.6317 15.7705 27.5477 15.8523 27.4216 15.9342C26.8123 16.5073 26.3605 16.9064 26.0664 17.1316C25.5831 17.5614 25.2154 17.8991 24.9633 18.1447C24.7321 18.3699 24.5956 18.5439 24.5535 18.6667C24.5325 18.7895 24.5115 18.943 24.4905 19.1272C24.4485 19.3114 24.3959 19.5263 24.3329 19.7719C24.2909 20.0175 24.2384 20.2939 24.1753 20.6009C23.8391 22.1564 23.524 23.405 23.2298 24.3465C22.9357 25.2675 22.5364 26.0556 22.0322 26.7105C21.3388 27.5702 20.5824 28 19.7629 28C19.3637 28 19.017 27.9079 18.7229 27.7237C18.4497 27.5395 18.3132 27.3348 18.3132 27.1096ZM19.7945 27.5395C20.4458 27.4167 20.9501 27.0892 21.3073 26.557C22.3578 24.9605 23.1143 22.6681 23.5765 19.6798C22.3578 20.867 21.2863 22.1974 20.3618 23.6711C19.4583 25.1447 19.0065 26.2398 19.0065 26.9561C19.0065 27.3655 19.1851 27.5702 19.5423 27.5702C19.6474 27.5702 19.7314 27.5599 19.7945 27.5395Z" fill="black"/>
<path d="M29.9479 17.0395C29.6327 16.9371 29.4751 16.6404 29.4751 16.1491C29.4751 15.7193 29.5592 15.2588 29.7273 14.7675C29.9164 14.2558 30.1895 13.5804 30.5467 12.7412L30.8304 12.0658C30.2841 12.6389 29.8218 13.2222 29.4436 13.8158C29.0864 14.3889 28.8658 14.7368 28.7817 14.8596C28.5926 15.1871 28.4035 15.4839 28.2144 15.75C28.0043 16.057 27.8152 16.2105 27.6471 16.2105C27.5211 16.2105 27.4265 16.1594 27.3635 16.057C27.3004 15.9342 27.2794 15.8114 27.3004 15.6886C27.3845 15.1564 27.6366 14.3991 28.0569 13.4167C28.4981 12.4342 28.8238 11.9327 29.0339 11.9123C29.0759 11.9123 29.1284 11.9225 29.1915 11.943C29.2755 11.9634 29.3386 11.9942 29.3806 12.0351C29.4436 12.0965 29.4436 12.1988 29.3806 12.3421C29.3175 12.4649 29.2335 12.6184 29.1284 12.8026C28.8133 13.3348 28.5821 13.8363 28.4351 14.307L28.4035 14.3991C28.4246 14.3787 28.4981 14.2763 28.6242 14.0921C28.7712 13.9079 28.9078 13.7339 29.0339 13.5702C30.0845 12.1374 30.7673 11.2778 31.0825 10.9912C31.2716 10.8275 31.4817 10.7456 31.7128 10.7456C31.8599 10.7456 31.9755 10.7968 32.0595 10.8991C32.1436 10.981 32.1541 11.0833 32.091 11.2061C32.049 11.288 31.8914 11.6155 31.6183 12.1886C31.3451 12.7412 31.0825 13.345 30.8304 14C30.3471 15.1462 30.137 15.9444 30.2 16.3947C30.2 16.4561 30.2315 16.4868 30.2946 16.4868C30.3366 16.4868 30.4311 16.4459 30.5782 16.364C30.7253 16.2617 30.8093 16.2515 30.8304 16.3333V16.4561C30.8304 16.5789 30.7883 16.6813 30.7043 16.7632C30.4732 17.0292 30.221 17.1213 29.9479 17.0395Z" fill="black"/>
<path d="M31.8007 16.1798C31.6116 15.9751 31.5171 15.6374 31.5171 15.1667C31.5171 14.6345 31.6537 14.0512 31.9268 13.4167C32.2 12.7617 32.5256 12.1886 32.9038 11.6974C33.3031 11.2061 33.6813 10.9196 34.0385 10.8377C34.2486 10.7968 34.4062 10.7763 34.5112 10.7763C34.8894 10.7763 35.1731 10.9094 35.3622 11.1754C35.4042 11.2164 35.4252 11.2675 35.4252 11.3289C35.4252 11.3903 35.3622 11.4825 35.2361 11.6053C35.1941 11.5643 35.1416 11.5234 35.0785 11.4825C35.0155 11.4211 34.9524 11.3596 34.8894 11.2982C34.8264 11.2164 34.7423 11.1754 34.6373 11.1754C34.3851 11.1754 34.0595 11.4006 33.6602 11.8509C33.261 12.3012 32.9038 12.8538 32.5887 13.5088C32.2945 14.1637 32.1474 14.7778 32.1474 15.3509C32.1474 15.5556 32.1579 15.7091 32.1789 15.8114C32.221 15.7705 32.3786 15.5965 32.6517 15.2895C32.9249 14.9825 33.3976 14.1944 34.07 12.9254C34.175 12.7412 34.2801 12.6491 34.3851 12.6491L34.6373 12.6184C34.7633 12.6184 34.8579 12.6594 34.9209 12.7412C34.963 12.8026 34.963 12.8743 34.9209 12.9561C34.7108 13.2632 34.5322 13.6316 34.3851 14.0614C34.2591 14.4912 34.196 14.9006 34.196 15.2895C34.196 15.617 34.2591 15.9035 34.3851 16.1491C34.6163 16.0672 34.8474 15.8216 35.0785 15.4123C35.3307 15.0029 35.5513 14.5936 35.7404 14.1842C35.9295 13.7749 36.0555 13.4985 36.1186 13.3553C36.1816 13.4781 36.2131 13.652 36.2131 13.8772C36.2131 14.2251 36.1396 14.6038 35.9925 15.0132C35.8664 15.402 35.6668 15.7602 35.3937 16.0877C35.1205 16.4152 34.8369 16.5789 34.5427 16.5789C34.2486 16.5789 33.9964 16.4254 33.7863 16.1184C33.5972 15.8114 33.5132 15.4942 33.5342 15.1667L32.7463 16.1491C32.5782 16.3129 32.3996 16.3947 32.2105 16.3947C32.0424 16.3947 31.9058 16.3231 31.8007 16.1798Z" fill="black"/>
<path d="M36.8127 16.6711C36.2034 16.4459 35.8987 15.8319 35.8987 14.8289C35.8987 14.174 36.0038 13.4371 36.2139 12.6184C36.445 11.7997 36.7286 10.8889 37.0648 9.88596C36.6026 9.94737 36.2769 9.97807 36.0878 9.97807C35.9197 9.97807 35.7936 9.9576 35.7096 9.91667C35.6256 9.85526 35.531 9.74269 35.4259 9.57895C35.8672 9.53801 36.1824 9.50731 36.3715 9.48684C36.5816 9.4459 36.8862 9.36403 37.2855 9.24123L37.6321 8.44298C37.9263 7.80848 38.1259 7.40936 38.231 7.24561C38.336 7.08187 38.4726 7 38.6407 7L38.9243 7.0614C39.0714 7.08187 39.145 7.14327 39.145 7.24561C39.145 7.34795 39.0189 7.6652 38.7668 8.19737L38.5146 8.75L39.145 8.56579C41.036 7.93128 42.2757 7.61403 42.864 7.61403C43.0531 7.61403 43.1581 7.64474 43.1791 7.70614C43.1371 7.80848 43.0006 7.90058 42.7694 7.98246C42.5383 8.06433 42.3282 8.12573 42.1391 8.16667C41.971 8.2076 41.8554 8.2383 41.7924 8.25877C40.9519 8.50438 40.5107 8.63743 40.4687 8.6579C39.8173 8.90351 39.3025 9.09795 38.9243 9.24123C38.5461 9.3845 38.3255 9.48684 38.2625 9.54825C38.1994 9.60965 38.1364 9.72222 38.0734 9.88596C37.8002 10.5819 37.5061 11.5029 37.1909 12.6491C36.8967 13.7953 36.7497 14.7164 36.7497 15.4123C36.7497 15.8012 36.8127 16.0775 36.9388 16.2412C37.2119 16.0775 37.5901 15.5863 38.0734 14.7675C38.5566 13.9488 38.8403 13.4678 38.9243 13.3246L39.0189 13.3553C38.9138 14.2149 38.6302 15.0234 38.1679 15.7807C37.7267 16.538 37.2749 16.8348 36.8127 16.6711Z" fill="black"/>
<path d="M40.9321 17.2544C40.827 17.0497 40.7745 16.7939 40.7745 16.4868C40.7745 16.3436 40.785 16.1594 40.806 15.9342C40.827 15.6886 40.827 15.4634 40.806 15.2588C40.743 15.402 40.6274 15.617 40.4593 15.9035C40.3122 16.1901 40.1652 16.4254 40.0181 16.6096C39.808 16.8757 39.5768 17.0088 39.3247 17.0088C39.0726 17.0088 38.8625 16.886 38.6944 16.6403C38.5263 16.3743 38.4422 16.0263 38.4422 15.5965C38.4422 15.3918 38.4527 15.2281 38.4737 15.1053C38.5788 14.3889 38.7889 13.6009 39.1041 12.7412C39.4403 11.8611 39.7975 11.1652 40.1757 10.6535C40.5749 10.1213 40.9006 9.94737 41.1527 10.1316C41.1947 10.1725 41.1947 10.2544 41.1527 10.3772C41.1107 10.4795 41.0581 10.5921 40.9951 10.7149C40.9321 10.8173 40.8901 10.8889 40.869 10.9298C40.4698 11.5643 40.1652 12.1272 39.955 12.6184C39.6189 13.3757 39.3667 14.1535 39.1986 14.9518L39.1671 15.6886C39.1671 16.0979 39.2091 16.3436 39.2932 16.4254C39.5663 16.1798 40.2387 14.962 41.3103 12.7719L41.9721 11.4825C42.0352 11.4211 42.0982 11.4108 42.1612 11.4518C42.3924 11.5132 42.5079 11.6769 42.5079 11.943C42.5079 12.1067 42.4344 12.5161 42.2873 13.1711C41.9932 14.3172 41.7935 15.3406 41.6885 16.2412C41.6885 16.2822 41.678 16.364 41.657 16.4868C41.636 16.6096 41.636 16.7018 41.657 16.7632C41.699 16.8041 41.762 16.7836 41.8461 16.7018L42.571 15.8421C42.8231 15.5351 43.0017 15.3406 43.1068 15.2588C43.2118 15.1769 43.2643 15.2178 43.2643 15.3816C43.2643 15.5658 43.1698 15.8523 42.9807 16.2412C42.7916 16.6301 42.5605 16.9883 42.2873 17.3158C42.0142 17.6228 41.762 17.7763 41.5309 17.7763C41.2788 17.7763 41.0792 17.6023 40.9321 17.2544Z" fill="black"/>
<path d="M44.2347 16.9167C43.7935 16.5073 43.5729 15.9956 43.5729 15.3816C43.5729 14.8903 43.6779 14.3684 43.888 13.8158C44.0982 13.2632 44.3083 12.7515 44.5184 12.2807C44.7495 11.8099 44.9071 11.4927 44.9911 11.3289C44.9281 11.3085 44.823 11.2675 44.676 11.2061C44.5289 11.1447 44.4448 11.1243 44.4238 11.1447C44.2767 11.1857 43.9616 11.5132 43.4783 12.1272C43.1631 12.5161 42.974 12.731 42.911 12.7719C42.89 12.7924 42.8585 12.8026 42.8165 12.8026C42.7534 12.8026 42.7114 12.7719 42.6904 12.7105C42.6694 12.6491 42.6904 12.557 42.7534 12.4342C42.8795 12.2295 43.1106 11.8713 43.4468 11.3596C43.783 10.848 43.9616 10.6126 43.9826 10.6535C43.9196 10.5307 43.888 10.3772 43.888 10.193C43.888 9.8655 43.9931 9.50731 44.2032 9.11842C44.4343 8.70906 44.6865 8.37134 44.9596 8.10526C45.2328 7.83918 45.4429 7.72661 45.59 7.76754L45.9366 7.73684C46.2308 7.73684 46.3359 7.88012 46.2518 8.16667C46.1678 8.51462 46.0207 8.85234 45.8106 9.17982C45.6215 9.48684 45.4114 9.79386 45.1802 10.1009C44.9701 10.4079 44.823 10.6126 44.739 10.7149C44.9071 10.7558 45.1067 10.8172 45.3378 10.8991C45.59 10.9605 45.758 11.0219 45.8421 11.0833C45.9472 11.1447 45.9997 11.2368 45.9997 11.3596C45.9997 11.462 45.9682 11.595 45.9051 11.7588L45.6215 12.3728C45.2853 13.0073 45.0121 13.6213 44.802 14.2149C44.6129 14.6857 44.5184 15.1462 44.5184 15.5965C44.5184 15.924 44.5919 16.2208 44.739 16.4868C44.9071 16.405 45.0542 16.2822 45.1802 16.1184C45.3063 15.9342 45.4219 15.7398 45.5269 15.5351C45.653 15.3099 45.758 15.136 45.8421 15.0132C45.8841 14.9313 45.9156 14.8903 45.9366 14.8903C45.9787 14.8699 46.0207 14.8801 46.0627 14.9211C46.1047 14.962 46.1363 15.0029 46.1573 15.0439C46.1783 15.0848 46.1888 15.1462 46.1888 15.2281C46.1888 15.3099 46.1678 15.4327 46.1257 15.5965C46.0207 15.9444 45.8316 16.2822 45.5584 16.6096C45.3063 16.9371 45.0332 17.1009 44.739 17.1009C44.5289 17.1009 44.3608 17.0395 44.2347 16.9167ZM45.3378 8.8114L45.2748 8.7807C45.2538 8.80117 45.1697 8.90351 45.0227 9.08772C44.8756 9.27193 44.7915 9.46637 44.7705 9.67105L45.3378 8.8114Z" fill="black"/>
<path d="M46.1794 17.4386C46.1584 17.4386 46.1479 17.4284 46.1479 17.4079C45.8327 17.0804 45.6752 16.6199 45.6752 16.0263C45.6752 15.7807 45.7172 15.4532 45.8012 15.0439C45.9063 14.5936 46.1059 13.9795 46.4 13.2018C46.6942 12.424 47.0619 11.7178 47.5031 11.0833C47.9654 10.4284 48.4592 10.1009 48.9844 10.1009C49.0475 10.1009 49.163 10.1213 49.3311 10.1623C49.4782 10.2032 49.5938 10.2851 49.6778 10.4079C49.7829 10.5102 49.8354 10.633 49.8354 10.7763C49.8354 10.9196 49.7934 11.0629 49.7093 11.2061C49.4362 11.6564 49.1105 12.0658 48.7323 12.4342C48.3751 12.8026 48.081 12.9868 47.8498 12.9868C47.7658 12.9868 47.6817 12.9459 47.5977 12.864C47.4716 12.7412 47.4086 12.6798 47.4086 12.6798C47.0724 13.4576 46.8098 14.1126 46.6207 14.6447C46.4526 15.1564 46.3685 15.6579 46.3685 16.1491C46.3685 16.4971 46.4316 16.8143 46.5576 17.1009C46.7047 17.4284 47.0619 17.2851 47.6292 16.6711C48.2175 16.057 48.7323 15.4634 49.1735 14.8903C49.6148 14.3172 49.8879 13.9693 49.993 13.8465C50.035 14.2149 49.8879 14.7164 49.5518 15.3509C49.2156 15.9649 48.7848 16.5175 48.2596 17.0088C47.7343 17.4795 47.2615 17.7149 46.8413 17.7149C46.5891 17.7149 46.3685 17.6228 46.1794 17.4386ZM47.5031 12.5263C47.5242 12.5468 47.5557 12.557 47.5977 12.557C47.6607 12.557 47.7238 12.5365 47.7868 12.4956C47.8708 12.4342 47.9234 12.3933 47.9444 12.3728C48.2806 12.1067 48.5537 11.7997 48.7638 11.4518C48.995 11.1038 49.1105 10.8377 49.1105 10.6535C49.1105 10.5102 49.0055 10.5205 48.7953 10.6842C48.6062 10.848 48.3331 11.1959 47.9759 11.7281C47.9549 11.769 47.8603 11.9123 47.6922 12.1579C47.5452 12.383 47.4821 12.5058 47.5031 12.5263Z" fill="black"/>
</svg>
